<svg width="128" height="212" viewBox="0 0 128 212" fill="none" xmlns="http://www.w3.org/2000/svg">
<g style="mix-blend-mode:multiply">
<path d="M10.0625 209.558C10.0625 209.558 48.9694 208.469 101.505 209.738C101.505 209.738 47.8935 213.704 10.0625 209.558Z" fill="#D697C2"/>
</g>
<path d="M67.2031 183.929C67.8818 188.003 68.1429 192.135 67.9825 196.261L74.1072 194.551L73.0795 183.584C72.1388 183.189 71.1199 183.014 70.1012 183.074C69.0826 183.134 68.0911 183.426 67.2031 183.929Z" fill="url(#paint0_linear_2996_62118)"/>
<path d="M42.7578 184.956C42.9855 188 42.9855 191.057 42.7578 194.102C44.2297 194.787 45.7352 195.397 47.2686 195.93C47.8548 195.998 49.5584 194.102 49.5584 194.102V184.956C47.3011 185.25 45.0151 185.25 42.7578 184.956Z" fill="url(#paint1_linear_2996_62118)"/>
<path d="M41.3716 195.936C41.3716 195.936 39.199 191.06 40.0681 191.066C40.9371 191.073 45.9375 194.867 46.6548 195.205C47.3721 195.543 49.4137 192.011 49.4137 192.011C49.4137 192.011 50.8483 192.211 50.9449 192.57C51.0414 192.929 49.8689 194.115 49.8689 194.115L52.8071 205.895C52.8071 205.895 51.5035 209.165 45.2202 209.427C38.9369 209.689 28.536 206.53 24.9219 206.792C27.1421 205.511 29.4938 204.473 31.9363 203.695C36.8402 201.964 41.3716 195.936 41.3716 195.936Z" fill="url(#paint2_linear_2996_62118)"/>
<path d="M82.7292 207.041C82.7292 207.041 79.0254 204.972 75.9562 205.476C73.5974 205.869 71.5075 208.283 69.9212 209.145C69.7359 209.272 69.5268 209.361 69.3064 209.406C69.086 209.451 68.8588 209.452 68.6383 209.407C67.2589 208.972 66.3554 204.951 66.1484 203.855V203.758C66.1484 203.758 66.1484 203.703 66.1484 203.682C66.1484 203.662 66.1484 203.648 66.1484 203.641C66.1498 203.62 66.1498 203.6 66.1484 203.579C66.1484 203.579 67.4451 201.703 67.7072 197.799C67.7495 197.025 67.7495 196.249 67.7072 195.475C67.6837 194.819 67.4409 194.19 67.0175 193.688L68.1831 192.467C68.1831 192.467 68.0244 195.806 68.5417 195.916C69.059 196.026 71.6731 191.495 73.9422 192.378C76.2114 193.261 75.5355 197.896 77.7564 201.344C79.5358 204.103 82.4188 206.089 82.6671 206.765C82.7016 206.952 82.7292 207.041 82.7292 207.041Z" fill="url(#paint3_linear_2996_62118)"/>
<path d="M83.9488 209.806L70.0165 209.558L65.0712 209.455C64.7264 207.006 66.0989 203.578 66.0989 203.578C66.1003 203.599 66.1003 203.62 66.0989 203.64C66.0989 203.64 66.0989 203.64 66.0989 203.682C66.0989 203.723 66.0989 203.73 66.0989 203.757V203.854C66.3127 204.785 67.1197 207.792 68.7198 207.958C69.279 207.955 69.8236 207.779 70.2786 207.454C72.0098 206.44 74.2651 204.344 77.3896 205.027C78.8587 205.351 81.9072 206.034 82.5624 206.792C83.3173 207.635 83.8004 208.685 83.9488 209.806Z" fill="url(#paint4_linear_2996_62118)"/>
<path d="M52.5361 204.724C53.5764 206.236 54.2278 207.982 54.4329 209.807H24.375L24.9406 206.758C24.9406 206.758 29.2582 206.158 36.0519 207.979C42.8456 209.8 51.4257 206.793 52.5361 204.724Z" fill="url(#paint5_linear_2996_62118)"/>
<g style="mix-blend-mode:multiply">
<path d="M42.8544 186.439L49.5584 188.418V185.294L42.7578 185.073L42.8544 186.439Z" fill="#EA8BC2"/>
</g>
<g style="mix-blend-mode:multiply">
<path d="M67.7756 188.418L73.3761 186.984L73.2106 184.915L67.2031 184.515C67.2031 184.515 67.6928 187.37 67.7756 188.418Z" fill="#EA8BC2"/>
</g>
<path d="M31.5234 62.876C31.5234 62.876 32.1787 73.9115 35.9652 81.9123C35.9652 81.9123 36.7515 69.4559 31.5234 62.876Z" fill="#C21651"/>
<path d="M61.6797 87.5951C61.6797 87.5951 72.2048 86.5468 75.7085 78.3805C75.7085 78.3805 64.6455 78.0356 61.6797 87.5951Z" fill="#C21651"/>
<path d="M51.0859 9.5876C51.0859 9.5876 60.1833 0.36603 64.1906 0.448796C68.1978 0.531563 67.8461 6.74595 69.9359 8.03573C72.0257 9.3255 72.9707 8.72544 74.5915 10.8567C76.2123 12.9879 75.9364 23.2717 74.5915 26.4651C73.2465 29.6585 51.0859 9.5876 51.0859 9.5876Z" fill="url(#paint6_linear_2996_62118)"/>
<path d="M39.0156 3.44909L40.6434 3.11802C40.6434 3.11802 73.1704 -2.09627 79.4399 38.2938L78.3088 38.9835L39.0156 3.44909Z" fill="url(#paint7_linear_2996_62118)"/>
<path d="M78.295 38.9147C78.295 38.9147 65.2387 40.0044 52.3065 30.3483C39.3743 20.6922 39.0156 3.44922 39.0156 3.44922C39.0156 3.44922 57.638 3.4906 67.4595 13.4364C77.2811 23.3822 78.295 38.9147 78.295 38.9147Z" fill="url(#paint8_linear_2996_62118)"/>
<path d="M13.9235 47.9569C12.8901 46.4218 11.4825 45.1755 9.83348 44.3359L10.1576 42.8392L8.46094 37.9352C8.46094 37.9352 10.2473 37.2455 13.9235 40.1079C17.5997 42.9702 16.9789 49.0742 16.9789 49.0742L13.9235 47.9569Z" fill="url(#paint9_linear_2996_62118)"/>
<g style="mix-blend-mode:multiply">
<path d="M45.4922 12.7122C45.4922 12.7122 45.6784 10.643 46.1819 9.90499C46.6854 9.16699 56.4449 10.5119 61.1005 13.126C65.7561 15.74 68.5701 17.6092 70.0116 24.9478C71.122 30.5483 72.0325 33.9142 72.0325 33.9142C72.0325 33.9142 49.0511 20.7957 45.4922 12.7122Z" fill="#EA8BC2"/>
</g>
<path d="M45.9849 47.2325C49.7608 46.5279 53.5709 46.0214 57.3997 45.7151C62.676 45.3703 69.4767 47.9222 69.4767 47.9222C69.4767 47.9222 73.4701 46.4324 74.3874 44.3357C75.3048 42.2389 73.0563 37.4385 70.9389 30.4861C69.9262 27.0256 68.7266 23.6226 67.3454 20.292C67.3454 20.292 61.4622 12.7051 54.7995 12.7051C48.1368 12.7051 45.3849 14.5397 44.4537 16.7262C43.5226 18.9126 43.8468 23.582 42.9984 26.2029C42.1501 28.8239 39.9775 33.5209 40.8258 36.8522C41.6742 40.1836 45.9849 47.2325 45.9849 47.2325Z" fill="url(#paint10_linear_2996_62118)"/>
<path d="M48.1214 12.7122C45.1349 14.671 44.597 17.9403 44.597 20.2991C44.597 22.658 45.2453 25.6583 44.0038 28.2723C42.7623 30.8864 42.3761 34.1487 44.659 36.8938C46.942 39.6389 47.5352 40.8804 48.6456 41.4046C49.756 41.9288 54.9634 41.577 60.7984 38.7078C66.6334 35.8386 69.3371 27.555 68.3853 22.589C67.4335 17.623 55.7497 7.72553 48.1214 12.7122Z" fill="url(#paint11_linear_2996_62118)"/>
<path d="M66.4179 29.0717C66.4179 29.0717 69.1147 26.3128 71.3839 27.7612C73.6531 29.2097 71.8598 34.6033 69.3148 35.562C68.6377 35.8585 67.8889 35.9513 67.16 35.8287C66.4312 35.7062 65.7538 35.3738 65.2109 34.8723C65.2109 34.8723 65.4179 30.6788 66.4179 29.0717Z" fill="url(#paint12_linear_2996_62118)"/>
<path d="M62.4271 37.6797C62.4271 37.6797 60.7718 44.7286 60.9718 45.646C61.2517 46.4999 61.6461 47.312 62.1443 48.06C62.1443 48.06 56.461 53.6191 53.3228 53.7502C50.1846 53.8812 51.2537 49.8946 51.2537 49.8946C52.3906 49.5589 53.4698 49.0519 54.454 48.3911C55.6334 47.4737 55.7851 40.6524 55.7851 40.6524C55.7851 40.6524 60.9028 39.0522 62.4271 37.6797Z" fill="url(#paint13_linear_2996_62118)"/>
<path d="M35.3583 73.5662C35.3583 73.5662 30.4751 76.2492 28.737 76.5113C26.9989 76.7734 21.9364 69.6141 18.543 62.0272C16.6162 57.4634 15.0706 52.7481 13.9219 47.9293L16.1014 47.2051C16.1014 47.2051 19.7638 55.3093 23.3365 58.7924C26.9092 62.2755 29.6957 64.9585 29.6957 64.9585L32.6546 63.8411C32.6546 63.8411 34.841 69.49 35.3583 73.5662Z" fill="url(#paint14_linear_2996_62118)"/>
<path d="M12.2468 72.8904C12.2468 72.8904 12.3847 49.7641 11.7157 43.9221C11.0467 38.0802 0.507812 25.5204 0.507812 25.5204L17.0196 20.8441L16.4541 18.7749C16.4541 18.7749 20.282 17.9886 22.1994 18.2507L20.413 10.9121C20.413 10.9121 26.4274 13.3261 27.9999 18.168C27.9999 18.168 29.5242 35.9559 28.8276 45.0119C28.131 54.0679 22.9029 74.532 22.9029 74.532C22.9029 74.532 18.7232 75.7528 16.2816 75.1458L16.3713 73.5939C14.9654 73.6086 13.5683 73.3703 12.2468 72.8904Z" fill="url(#paint15_linear_2996_62118)"/>
<path style="mix-blend-mode:multiply" opacity="0.5" d="M22.1975 18.2227C22.1975 18.2227 27.4049 36.521 28.0256 41.6732C28.6464 46.8254 23.4252 72.4209 23.4252 72.4209C23.4252 72.4209 24.1908 46.2598 23.6735 40.9007C23.1562 35.5416 18.9766 18.6572 18.9766 18.6572L22.1975 18.2227Z" fill="url(#paint16_linear_2996_62118)"/>
<path style="mix-blend-mode:multiply" opacity="0.5" d="M17.021 20.8438C17.021 20.8438 18.9798 37.6109 18.9798 41.6595C18.9798 45.7082 16.3658 73.566 16.3658 73.566H15.6415C15.6415 73.566 17.5383 57.0127 17.3107 55.7229C17.0831 54.4332 15.6415 45.1771 15.6415 45.1771L11.8964 46.1841C11.8964 46.1841 11.3722 40.2594 8.9375 37.2729C8.9375 37.2729 14.1311 30.286 14.7587 28.3686C15.3864 26.4512 15.7933 21.2024 15.7933 21.2024L17.021 20.8438Z" fill="url(#paint17_linear_2996_62118)"/>
<path d="M10.9623 33.252C10.9623 33.252 9.08631 36.4729 6.73438 38.08C6.73438 38.08 6.78266 39.3422 8.72076 39.6526L8.41038 40.2388C8.58425 40.6333 8.86347 40.9721 9.21736 41.2182C9.21736 41.2182 8.91388 42.3908 9.5898 42.9356C9.72085 43.1908 12.6384 41.1424 13.6798 39.894C14.327 39.0161 14.6511 37.9416 14.5971 36.8523C14.5971 36.8523 14.9903 36.2936 14.7627 34.8245L9.107 39.3353L8.98285 38.7421C9.91141 38.0282 10.6601 37.1071 11.1692 36.0522C11.461 35.1267 11.3869 34.1245 10.9623 33.252Z" fill="url(#paint18_linear_2996_62118)"/>
<path d="M9.57323 43.715C9.5549 43.9849 9.62331 44.2537 9.76848 44.482C9.91365 44.7103 10.128 44.8862 10.3802 44.9841C11.3485 44.8706 12.2599 44.4667 12.9942 43.8254C13.8633 42.8666 13.9943 41.1285 13.7736 40.9492C12.476 42.0181 11.0679 42.9453 9.57323 43.715Z" fill="url(#paint19_linear_2996_62118)"/>
<path d="M69.5568 32.4657C67.8118 27.6377 69.6879 24.8029 68.1774 20.6646C66.6669 16.5263 57.1971 11.1189 52.1897 10.8844C47.1824 10.6498 45.2926 12.6018 43.9131 15.133C42.5337 17.6643 40.3611 18.5265 40.3611 21.0577C40.3611 23.589 41.7957 24.3546 42.1061 26.472C42.4165 28.5895 38.9265 34.059 39.0093 39.6595C39.092 45.26 44.4097 47.8051 44.4097 47.8051L43.0303 45.9774C43.1062 46.0463 43.7545 46.6257 46.003 47.2326L47.1341 46.3222C47.1341 46.3222 41.5129 39.3078 41.5129 33.6451C41.5129 27.9825 43.2993 27.3687 43.8649 24.3684C44.4304 21.3681 43.9752 18.7679 44.8857 17.6091C47.0927 14.7813 56.7833 14.0019 56.7833 14.0019C56.7833 14.0019 58.8524 19.1403 62.2527 22.0164C63.863 26.6568 64.851 31.4902 65.1909 36.3902C65.5909 43.8392 61.7975 46.1498 61.7975 46.1498C62.6122 46.2454 63.4379 46.1582 64.2146 45.8946C64.9913 45.6309 65.6995 45.1973 66.2876 44.6255C66.2876 44.6255 66.1565 46.3222 64.108 47.9775C64.108 47.9775 69.4396 48.6673 71.0673 47.2464C70.3246 47.9546 69.4921 48.5621 68.5912 49.0535C69.9279 48.6847 71.127 47.9317 72.0398 46.8878C73.8262 45.0117 71.2949 37.3007 69.5568 32.4657ZM43.0096 21.5336C42.782 24.0511 42.5061 25.8789 42.5061 25.8789C42.5682 24.7339 40.8715 22.582 41.2646 20.4922C41.6076 19.0774 42.3219 17.7797 43.3338 16.7332C43.3338 16.7332 43.2372 19.0231 43.0096 21.5336Z" fill="url(#paint20_linear_2996_62118)"/>
<path d="M44.7894 52.9639C42.7836 54.992 40.6651 56.9056 38.444 58.6955C34.4437 61.9578 31.5469 62.8752 31.5469 62.8752C31.5469 62.8752 36.4232 73.4624 35.9887 81.9115C35.9887 81.9115 42.2651 81.47 44.3549 75.2832C46.4447 69.0964 45.5757 56.4677 45.5757 56.4677L44.7894 52.9639Z" fill="url(#paint21_linear_2996_62118)"/>
<path d="M73.0782 181.231C71.9678 180.183 73.0162 180.9 73.0162 180.9C73.0162 180.9 70.9884 162.277 70.5952 159.518C70.2021 156.76 67.5881 142.393 67.2018 136.516C66.8156 130.64 66.2845 113.176 65.8914 108.927C65.4982 104.679 56.0905 88.4151 56.0905 88.4151C56.0905 88.4151 58.8494 87.153 56.2767 84.9665L42.5858 84.4217H42.3651C42.0823 84.3668 41.7902 84.3849 41.5162 84.4742C41.2423 84.5635 40.9956 84.721 40.7995 84.9321C40.2132 85.6218 41.5789 86.9598 41.5789 86.9598C41.5789 86.9598 36.8957 94.0778 36.0059 94.733C35.0864 95.3475 34.1356 95.9138 33.1574 96.4297C33.1574 96.4297 30.2813 110.155 30.2123 112.831C30.1571 115.259 31.7642 141.227 32.4056 146.91C32.4317 147.273 32.487 147.633 32.5712 147.986C33.0057 148.945 34.5713 151.642 34.9231 153.345C35.2748 155.049 38.5786 176.299 38.5786 176.299C38.2642 176.796 38.0008 177.323 37.7923 177.872C37.7923 178.134 41.103 180.631 41.103 180.631C41.103 180.631 40.3443 182.976 40.5374 184.017C42.4698 185.101 44.6078 185.769 46.8138 185.976C49.952 186.107 52.0419 183.031 52.0419 183.031L50.6004 179.707C50.9258 178.856 51.1886 177.982 51.3866 177.093C51.3866 176.637 50.5383 171.933 50.2762 168.464C50.021 165.133 50.0693 155.221 49.9658 153.821C49.9658 153.759 49.9658 153.718 49.9658 153.697C49.9706 153.67 49.9706 153.642 49.9658 153.614C49.7589 152.801 48.2967 148.959 47.7311 147.483L47.5932 147.138L47.5311 146.972C47.529 146.949 47.529 146.926 47.5311 146.903L48.3105 132.468C48.3105 132.468 53.5385 146.448 53.9317 147.952C54.3248 149.455 56.0008 152.201 56.0905 152.78C56.1802 153.359 55.6974 157.484 56.0905 159.312C56.4836 161.139 62.8842 178.003 62.8842 178.003L64.3878 180.417C64.3878 180.417 63.2084 181.465 63.1463 181.859C63.0842 182.252 67.0501 184.983 70.2021 185.383C73.3541 185.783 74.0576 184.079 74.0576 184.079C74.0576 184.079 74.1887 182.272 73.0782 181.231ZM42.372 84.7182C42.3346 85.3964 42.1309 86.0549 41.7789 86.6357C41.7789 86.6357 40.627 85.0907 42.372 84.7182ZM55.656 88.0979L55.9939 85.2907C56.3673 85.6934 56.5912 86.2119 56.6285 86.7598C56.6285 87.5944 55.656 88.0979 55.656 88.0979Z" fill="url(#paint22_linear_2996_62118)"/>
<path d="M61.6787 47.2326C62.1011 47.162 62.5323 47.162 62.9547 47.2326C63.2168 47.3775 62.6581 48.2948 62.9547 48.9156C63.2513 49.5363 68.1276 55.5093 68.8035 56.7508C69.4794 57.9923 73.0315 71.5867 75.7007 78.3804C75.7007 78.3804 63.7893 81.7118 61.6718 87.5951L60.2924 75.8699C60.2924 75.8699 57.0921 80.6979 55.2644 83.712C55.2644 83.712 56.8162 84.4017 56.7886 84.6293C56.7611 84.8569 55.2644 85.4087 55.2644 85.4087C55.2644 85.4087 51.5399 86.8502 48.988 86.8502C46.436 86.8502 47.4223 86.7812 45.8566 86.0639C44.291 85.3466 41.7183 84.3672 41.67 83.781C41.6218 83.1947 43.3323 82.2084 43.0495 81.0979C42.7667 79.9875 38.2973 70.9728 38.4905 68.3588C38.6836 65.7448 44.1323 59.3166 44.3944 57.9371C44.6565 56.5577 44.5945 53.2953 44.7876 52.9711C44.9807 52.647 50.1122 50.5502 50.6709 49.8053C50.9654 49.303 51.4267 48.9199 51.9744 48.7224C52.3676 48.5914 52.6641 49.4122 52.6641 49.4122C51.8918 50.2009 51.448 51.2537 51.4227 52.3573C51.4847 54.0195 56.7817 52.3573 58.8716 50.5916C60.0284 49.677 60.9841 48.5335 61.6787 47.2326Z" fill="url(#paint23_linear_2996_62118)"/>
<path d="M55.9963 85.2909C55.9963 85.2909 50.5269 87.029 48.3405 86.6704C46.3062 86.1829 44.3118 85.5419 42.3744 84.7529L41.7812 86.6704C43.8525 88.0106 46.2206 88.8229 48.6784 89.0361C51.0406 89.2367 53.4184 88.9286 55.6515 88.1326L55.9963 85.2909Z" fill="url(#paint24_linear_2996_62118)"/>
<path style="mix-blend-mode:multiply" opacity="0.5" d="M53.3148 26.4717C53.3148 26.4717 52.9768 28.8374 53.37 29.5616C53.7631 30.2858 56.6806 30.4859 58.0255 29.8651C58.8962 29.3951 59.5872 28.6508 59.9912 27.7477L53.3148 26.4717Z" fill="url(#paint25_linear_2996_62118)"/>
<path d="M50.0625 86.6362C50.5518 86.9172 50.9264 87.3616 51.1207 87.8914C51.3149 88.4211 51.3163 89.0024 51.1246 89.5331L52.111 89.2296C52.111 89.2296 53.1938 87.0432 51.3109 86.4707L50.0625 86.6362Z" fill="url(#paint26_linear_2996_62118)"/>
<path style="mix-blend-mode:multiply" opacity="0.5" d="M54.5859 94.7197C54.5859 94.7197 56.4137 101.12 57.5241 103.41C58.6346 105.7 62.1659 107.783 62.1659 107.783C62.1659 107.783 60.6623 98.9615 54.5859 94.7197Z" fill="url(#paint27_linear_2996_62118)"/>
<path style="mix-blend-mode:multiply" opacity="0.5" d="M36.0078 94.7822C36.0078 94.7822 40.1461 92.0234 41.4083 90.7129L38.6494 91.4026L36.0078 94.7822Z" fill="url(#paint28_linear_2996_62118)"/>
<path style="mix-blend-mode:multiply" opacity="0.5" d="M62.1635 108.225L59.9219 113.749L61.0461 122.247L62.1635 108.225Z" fill="url(#paint29_linear_2996_62118)"/>
<path style="mix-blend-mode:multiply" opacity="0.5" d="M48.2447 132.489L41.8855 109.494L39.9681 105.707C39.9681 105.707 40.5681 97.7686 41.4027 95.8512C42.2373 93.9337 44.1064 87.8711 44.1064 87.8711C44.1064 87.8711 41.0578 95.7615 40.7544 96.2857C40.4509 96.8099 39.4922 105.873 39.4922 105.873L47.7274 142.083L48.2447 132.489Z" fill="url(#paint30_linear_2996_62118)"/>
<g style="mix-blend-mode:multiply">
<path d="M48.2501 132.489L43.0703 113.749C43.0703 113.749 43.7049 124.405 44.8015 129.226C45.8982 134.047 48.2501 132.489 48.2501 132.489Z" fill="#FFB5C2"/>
</g>
<path d="M44.8668 17.6094C44.8668 17.6094 47.0394 20.1613 47.3636 22.4374C46.534 21.6195 45.6075 20.906 44.6047 20.3131C44.6047 20.3131 44.3633 18.4232 44.8668 17.6094Z" fill="url(#paint31_linear_2996_62118)"/>
<path d="M53.1328 17.9328C53.2005 18.8212 53.5593 19.6624 54.1536 20.3261C55.2803 20.2897 56.4079 20.366 57.5194 20.5538C58.7508 20.9117 59.943 21.3923 61.0784 21.9884C61.0784 21.9884 59.4782 19.3812 57.4229 18.4639C56.0643 17.9132 54.5846 17.73 53.1328 17.9328Z" fill="url(#paint32_linear_2996_62118)"/>
<path style="mix-blend-mode:multiply" opacity="0.5" d="M52.3671 29.9618C52.3671 29.9618 51.9256 21.2644 53.2568 18.6572C53.2568 18.6572 59.8367 20.2919 61.0989 21.9886C62.3611 23.6853 61.0989 29.5065 61.0989 29.5065C61.0989 29.5065 56.2847 33.1069 52.3671 29.9618Z" fill="url(#paint33_linear_2996_62118)"/>
<path d="M53.5495 28.7203C54.1358 29.6238 56.267 29.8514 58.0534 29.41C58.5811 29.2533 59.0593 28.9626 59.4413 28.5661C59.8232 28.1696 60.096 27.681 60.2329 27.1477C60.2329 27.1477 58.4465 22.4369 55.3566 22.699C52.2667 22.9611 53.2736 28.2789 53.5495 28.7203Z" fill="url(#paint34_linear_2996_62118)"/>
<path d="M54.4219 22.7612C54.4219 22.7612 55.0771 21.9888 55.4357 22.0163C55.7944 22.0439 58.6015 23.1613 59.2292 25.2167L54.4219 22.7612Z" fill="url(#paint35_linear_2996_62118)"/>
<path d="M53.5988 23.8989L52.6953 22.416C52.6953 22.416 58.3165 23.0368 59.6476 25.8646C57.9745 24.5302 55.9228 23.7578 53.7851 23.6575L53.5988 23.8989Z" fill="#95344D"/>
<path d="M56.7683 29.5964C56.7683 29.5964 56.4855 29.5964 56.0786 29.5964C55.2725 29.6236 54.477 29.4072 53.7956 28.9757C53.1818 28.486 53.1473 26.9686 53.2094 25.8512C53.2576 25.1615 53.3404 24.5684 53.3404 24.5684C53.3404 24.5684 56.4028 25.1753 56.7683 29.5964Z" fill="#908D66"/>
<g style="mix-blend-mode:multiply">
<path d="M56.0864 29.6173C55.2803 29.6444 54.4848 29.4281 53.8034 28.9965C53.1896 28.5068 53.1551 26.9894 53.2172 25.8721C53.2172 25.879 55.3829 25.7686 56.0864 29.6173Z" fill="#EABFC2"/>
</g>
<path d="M54.9844 27.3481C55.197 27.1139 55.4682 26.9406 55.77 26.846C56.0719 26.7515 56.3935 26.7391 56.7018 26.8101C56.7018 26.8101 56.2879 27.5895 54.9844 27.3481Z" fill="white"/>
<path style="mix-blend-mode:multiply" opacity="0.5" d="M45.1189 27.1549C45.1189 27.1549 45.0844 29.3344 45.3258 29.6103C45.5151 29.7281 45.7319 29.7946 45.9547 29.803C46.1775 29.8115 46.3987 29.7618 46.5964 29.6588C46.7942 29.5557 46.9616 29.4029 47.0823 29.2154C47.203 29.0279 47.2727 28.8122 47.2846 28.5895C47.5674 27.0791 45.1189 27.1549 45.1189 27.1549Z" fill="url(#paint36_linear_2996_62118)"/>
<path d="M44.8123 26.5332C44.8123 26.5332 45.2262 29.1473 46.1918 29.4714C47.1574 29.7956 47.8264 27.7816 47.4678 25.8987C47.1091 24.0157 45.8193 21.8983 45.4538 21.7603C45.0882 21.6224 44.7158 24.6986 44.8123 26.5332Z" fill="url(#paint37_linear_2996_62118)"/>
<path d="M47.256 25.1475C47.256 25.1475 46.4766 22.092 45.0558 21.1885C45.0558 21.1885 44.7385 23.0231 44.7109 23.6508C45.6211 24.0361 46.4768 24.5393 47.256 25.1475Z" fill="url(#paint38_linear_2996_62118)"/>
<path d="M47.2584 25.1473C47.2584 25.1473 45.5065 23.4092 43.6719 23.0781L44.8237 24.4576L44.8582 24.0713C45.7424 24.2009 46.5733 24.5734 47.2584 25.1473Z" fill="#95344D"/>
<path d="M47.0282 29.1127C46.9694 29.2589 46.8623 29.3807 46.7247 29.4575C46.5109 29.5679 46.1798 29.5472 45.7108 29.0713C45.0901 28.4506 44.8901 27.1677 44.828 26.1883C44.8073 25.7931 44.8073 25.3971 44.828 25.002C44.828 25.002 47.173 25.1882 47.0282 29.1127Z" fill="#908D66"/>
<g style="mix-blend-mode:multiply">
<path d="M46.7248 29.4587C46.511 29.5691 46.18 29.5484 45.711 29.0725C45.0902 28.4517 44.8902 27.1689 44.8281 26.1895C45.0281 26.2101 46.5731 26.7688 46.7248 29.4587Z" fill="#EABFC2"/>
</g>
<path d="M45.7734 27.2098C45.7734 27.2098 46.4632 26.2166 47.2839 26.3201C47.2563 26.3201 46.6218 27.3339 45.7734 27.2098Z" fill="white"/>
<path style="mix-blend-mode:multiply" opacity="0.5" d="M50.4265 30.8926C50.8215 31.2608 51.1322 31.7102 51.3369 32.2099C51.5783 32.8997 50.8541 33.4859 50.0816 32.9962C49.3091 32.5065 48.9988 32.5617 49.0677 32.8859C49.1367 33.21 48.6401 33.5411 47.4814 33.4376C46.3227 33.3342 45.2329 32.203 45.6467 31.1202C45.6467 31.1202 44.8674 33.0376 47.5021 33.7066C50.1368 34.3757 50.6541 33.2583 51.5921 32.9342C52.5301 32.61 50.4265 30.8926 50.4265 30.8926Z" fill="url(#paint39_linear_2996_62118)"/>
<path style="mix-blend-mode:multiply" opacity="0.5" d="M50.6252 33.3486C50.252 33.0768 49.8234 32.8908 49.3699 32.8037C48.963 32.8451 49.2182 33.3624 49.6252 33.5624C50.0321 33.7624 50.6252 33.3486 50.6252 33.3486Z" fill="url(#paint40_linear_2996_62118)"/>
<path d="M46.7188 35.9418C46.7188 35.9418 47.6706 37.8454 48.6844 38.3075C49.6983 38.7696 52.9814 36.9281 53.9194 34.6934C53.9194 34.6934 51.3674 35.8176 49.8845 35.859C48.4017 35.9004 46.7188 35.9418 46.7188 35.9418Z" fill="#FF524C"/>
<path d="M45.7734 35.3418C46.5327 35.9001 47.3818 36.3246 48.284 36.5971C49.3944 36.8247 51.8154 36.0729 52.6913 35.6797C53.3224 35.3338 53.8616 34.8419 54.2638 34.2451C53.9035 34.7042 53.4274 35.0589 52.8844 35.2728C51.2547 35.4286 49.617 35.4839 47.9805 35.4383C47.2287 35.4383 47.2425 35.6659 46.8218 35.7142C46.4457 35.6844 46.0841 35.556 45.7734 35.3418Z" fill="#E0223B"/>
<path style="mix-blend-mode:multiply" opacity="0.5" d="M53.1953 34.245C53.1953 34.245 55.1748 34.1415 55.7887 35.4382C55.7887 35.4382 55.5679 33.3622 53.1953 34.245Z" fill="url(#paint41_linear_2996_62118)"/>
<g style="mix-blend-mode:multiply">
<path d="M55.5391 44.4527C55.5391 44.4527 58.3807 45.0252 61.5948 41.6042L62.4569 37.6797C60.4079 39.018 58.1589 40.0215 55.7943 40.6524L55.5391 44.4527Z" fill="#EA8BC2"/>
</g>
<path style="mix-blend-mode:multiply" opacity="0.5" d="M44.3047 27.5277C44.3047 27.5277 44.5254 29.921 44.9944 30.2383C45.4634 30.5556 47.0636 30.0314 47.5808 28.2312C48.0981 26.431 47.3739 22.2237 47.3739 22.2237L44.6151 19.4648C44.5594 20.3836 44.5594 21.3049 44.6151 22.2237C44.7392 23.6514 44.6013 26.7897 44.3047 27.5277Z" fill="url(#paint42_linear_2996_62118)"/>
<path style="mix-blend-mode:multiply" opacity="0.5" d="M67.9453 4.22852C67.9453 4.22852 68.8902 8.69101 70.2628 10.8636C71.6353 13.0363 74.1528 12.65 74.1528 12.0569C74.1528 11.4637 72.5043 9.98769 70.5662 8.37374C69.326 7.261 68.4188 5.82607 67.9453 4.22852Z" fill="url(#paint43_linear_2996_62118)"/>
<path style="mix-blend-mode:multiply" opacity="0.5" d="M45.9889 47.2326C45.9889 47.2326 41.4643 43.6874 40.6436 39.9629C40.1753 37.3444 40.1753 34.6635 40.6436 32.0449C40.6436 32.0449 39.2986 36.5074 39.7607 39.6319C40.2228 42.7563 43.0162 45.9704 43.0162 45.9704C43.0162 45.9704 45.1888 47.3843 45.9889 47.2326Z" fill="url(#paint44_linear_2996_62118)"/>
<path style="mix-blend-mode:multiply" opacity="0.5" d="M66.2889 44.6253C67.3394 42.4894 67.9092 40.1492 67.958 37.7694C67.8545 34.3208 65.3164 28.1134 64.3025 24.1475C64.3025 24.1475 67.3441 31.9758 68.8063 36.9487C70.2685 41.9216 70.0961 46.391 64.1094 47.9842C65.0055 46.9842 65.7408 45.8511 66.2889 44.6253Z" fill="url(#paint45_linear_2996_62118)"/>
<path style="mix-blend-mode:multiply" opacity="0.5" d="M62.2344 22.0166C62.2344 22.0166 66.9727 26.2101 68.7591 26.8446L68.566 27.7827C68.566 27.7827 65.3312 26.8515 62.2344 22.0166Z" fill="url(#paint46_linear_2996_62118)"/>
<path style="mix-blend-mode:multiply" opacity="0.5" d="M56.7656 14.002C56.7656 14.002 63.5042 22.2786 68.746 23.0649L68.815 25.134C68.815 25.134 60.8832 21.0647 56.7656 14.002Z" fill="url(#paint47_linear_2996_62118)"/>
<path style="mix-blend-mode:multiply" opacity="0.5" d="M44.8675 17.6087C44.8675 17.6087 44.7778 13.9118 47.7574 12.7117C50.737 11.5116 56.7651 14.0015 56.7651 14.0015C56.7651 14.0015 48.4816 13.4359 44.8675 17.6087Z" fill="url(#paint48_linear_2996_62118)"/>
<g style="mix-blend-mode:multiply">
<path d="M29.6953 64.9864C29.6953 64.9864 32.5714 66.9452 33.2887 69.6282C33.7027 71.1246 33.9979 72.6514 34.1716 74.1942L35.1165 73.6976C35.1165 73.6976 33.6405 67.366 32.0472 64.0967L29.6953 64.9864Z" fill="#EA8BC2"/>
</g>
<g style="mix-blend-mode:multiply">
<path d="M64.5548 85.2909C64.5548 85.2909 67.2309 81.0077 72.1417 81.525L71.3968 79.918C71.3968 79.918 67.0033 81.6285 64.3203 84.0563L64.5548 85.2909Z" fill="#EA8BC2"/>
</g>
<g style="mix-blend-mode:multiply">
<path d="M75.9141 196.26C73.6794 195.872 71.3862 195.99 69.2031 196.605C69.2031 196.605 70.8171 193.294 72.9069 192.86C74.9967 192.425 75.9141 196.26 75.9141 196.26Z" fill="#EA8BC2"/>
</g>
<g style="mix-blend-mode:multiply">
<path d="M41.362 195.937L47.2867 196.626C47.2867 196.626 42.1276 191.847 39.8516 191.405C40.1944 192.965 40.7007 194.484 41.362 195.937Z" fill="#EA8BC2"/>
</g>
<path style="mix-blend-mode:multiply" opacity="0.5" d="M76.4769 113.211C76.4424 113.631 75.6906 117.294 75.0078 117.294C74.4705 117.339 73.9534 117.52 73.5042 117.818C73.0421 118.011 72.0352 118.177 71.573 118.439C70.9194 118.668 70.2412 118.821 69.5522 118.894L67.7865 119.218C67.6893 118.231 67.9327 117.24 68.4762 116.411C68.4762 116.411 67.821 112.493 67.2347 112.493C66.6485 112.493 65.2759 114.976 65.2759 114.976C65.2759 114.976 64.6897 109.617 64.8828 108.962C64.8828 108.962 67.6072 112.142 68.0417 112.838C68.4762 113.535 69.4211 115.714 69.4211 115.714C70.0368 115.71 70.6499 115.636 71.2489 115.494C71.7505 115.057 72.3741 114.785 73.0352 114.714C73.9526 114.714 74.6009 114.1 75.1044 113.969C75.5951 113.737 76.0465 113.43 76.4424 113.059C76.4647 113.106 76.4764 113.158 76.4769 113.211Z" fill="url(#paint49_linear_2996_62118)"/>
<path style="mix-blend-mode:multiply" opacity="0.5" d="M46.1944 88.5742L44.8564 92.747L41.8906 109.493C41.8906 109.493 44.6495 95.7335 44.9185 94.492C45.1875 93.2505 46.5186 88.5742 46.5186 88.5742H46.1944Z" fill="url(#paint50_linear_2996_62118)"/>
<g style="mix-blend-mode:multiply" opacity="0.5">
<path d="M41.7816 86.6367L41.1953 87.5954C41.1953 87.5954 43.7473 90.2991 45.1819 90.713C46.6165 91.1268 56.2173 88.6438 56.2173 88.6438L55.6311 88.0713C53.0937 88.7034 50.4759 88.9521 47.8649 88.8093C45.6959 88.5674 43.6131 87.8236 41.7816 86.6367Z" fill="#EA8BC2"/>
</g>
<path style="mix-blend-mode:multiply" opacity="0.5" d="M32.4062 146.959C32.4062 146.959 36.3997 151.601 37.7929 153.394C39.1862 155.187 40.1449 159.098 40.1449 159.098L34.6823 152.56C34.6823 152.56 32.4959 147.821 32.4062 146.959Z" fill="url(#paint51_linear_2996_62118)"/>
<path style="mix-blend-mode:multiply" opacity="0.5" d="M41.1103 180.652C41.7083 181.065 42.3353 181.434 42.9863 181.756C43.7726 182.101 46.1659 182.018 46.1659 182.018L44.0967 183.053L47.7522 182.101C48.9316 181.797 50.6284 179.728 50.6284 179.728C50.6284 179.728 51.4974 177.811 51.4146 177.114C51.4146 177.114 49.4972 180.232 48.8903 180.446C48.2833 180.659 47.366 181.011 47.366 181.011C47.366 181.011 49.4972 175.348 49.3248 173.783C49.1524 172.217 48.104 168.334 47.5798 168.203C47.0556 168.072 46.628 179.839 46.2762 180.273C45.9245 180.708 44.8968 172.603 44.4899 170.251C44.0829 167.9 39.5653 161.671 39.0411 162.023C38.5169 162.375 41.3103 176.962 43.6139 180.052L37.8203 177.921C38.8503 178.909 39.9498 179.822 41.1103 180.652Z" fill="url(#paint52_linear_2996_62118)"/>
<path style="mix-blend-mode:multiply" opacity="0.5" d="M53.6797 147.359C54.7493 149.439 56.1205 151.35 57.749 153.029C60.1009 155.27 63.1495 160.236 63.1495 160.236C63.1495 160.236 58.9698 155.367 57.4869 154.574C56.004 153.781 53.6797 147.359 53.6797 147.359Z" fill="url(#paint53_linear_2996_62118)"/>
<path style="mix-blend-mode:multiply" opacity="0.5" d="M64.3232 180.445C64.3232 180.445 68.4615 182.018 69.6133 182.273C70.3899 182.426 71.1887 182.426 71.9653 182.273L70.2824 183.515L72.5515 182.735L73.0136 180.9L71.9653 171.493C71.9653 171.493 71.9032 177.176 71.8342 178.031C71.7653 178.887 70.2824 180.576 70.2824 180.576C70.2824 180.576 64.7163 171.065 61.5781 168.686C61.5781 168.686 61.6402 172.21 62.3644 173.783C63.0886 175.355 68.896 180.776 68.896 180.776C67.3835 181.238 65.7535 181.12 64.3232 180.445Z" fill="url(#paint54_linear_2996_62118)"/>
<path style="mix-blend-mode:multiply" opacity="0.5" d="M56.0938 88.4082C56.0938 88.4082 59.4941 98.3195 59.9286 99.5679C60.3631 100.816 65.3911 106.907 65.3911 106.907C62.7145 100.537 59.6082 94.3566 56.0938 88.4082Z" fill="url(#paint55_linear_2996_62118)"/>
<path style="mix-blend-mode:multiply" opacity="0.5" d="M32.5176 99.624C32.5176 99.624 31.352 112.405 31.5244 118.764C31.6969 125.123 31.7658 139.324 31.7658 139.324C31.7658 139.324 30.1312 113.881 30.214 112.88C30.2967 111.88 32.5176 99.624 32.5176 99.624Z" fill="url(#paint56_linear_2996_62118)"/>
<path style="mix-blend-mode:multiply" opacity="0.5" d="M39.9688 105.707L41.7758 115.922L45.114 121.171L41.8862 109.494L39.9688 105.707Z" fill="url(#paint57_linear_2996_62118)"/>
<path style="mix-blend-mode:multiply" opacity="0.5" d="M47.4674 146.911L46.5156 150.505L49.9642 153.705C49.9642 153.705 48.6331 149.601 47.4674 146.911Z" fill="url(#paint58_linear_2996_62118)"/>
<g style="mix-blend-mode:multiply">
<path d="M44.4297 14.3121C44.4297 14.3121 51.8235 13.2776 58.6585 16.7537C62.9787 19.0641 66.7115 22.3344 69.5699 26.3133L68.8319 24.2441C68.8319 24.2441 70.901 20.3196 62.2382 14.3742C53.5753 8.42881 46.6092 11.4429 46.2161 12.0567C45.8229 12.6706 44.4297 14.3121 44.4297 14.3121Z" fill="#C98BC2"/>
</g>
<g style="mix-blend-mode:multiply">
<path d="M26.8653 62.2547C28.4402 66.4629 28.3959 71.1061 26.7411 75.2835C25.5683 74.1047 24.5381 72.7922 23.6719 71.3728C23.6719 71.3728 25.4858 63.71 25.9824 61.3994L26.8653 62.2547Z" fill="#EA8BC2"/>
</g>
<path style="mix-blend-mode:multiply" opacity="0.5" d="M16.3671 73.5659L17.6844 59.0059L12.4219 72.9175C13.7026 73.3067 15.0292 73.5247 16.3671 73.5659Z" fill="url(#paint59_linear_2996_62118)"/>
<path style="mix-blend-mode:multiply" opacity="0.5" d="M65.3906 82.9876L67.4184 57.3438C67.4184 57.3438 68.453 74.2419 68.2392 76.0766C68.0253 77.9112 65.3906 82.9876 65.3906 82.9876Z" fill="url(#paint60_linear_2996_62118)"/>
<path style="mix-blend-mode:multiply" opacity="0.5" d="M60.2702 75.8969L60.7392 69.7998L55.2422 83.7391L60.2702 75.8969Z" fill="url(#paint61_linear_2996_62118)"/>
<path style="mix-blend-mode:multiply" opacity="0.5" d="M45.8359 86.0912C45.8359 86.0912 50.2777 82.1736 51.7123 80.3389C53.1469 78.5043 55.8506 67.7998 55.8506 67.7998C55.8506 67.7998 50.5605 75.3109 49.5811 77.9249C48.6017 80.5389 45.8359 86.0912 45.8359 86.0912Z" fill="url(#paint62_linear_2996_62118)"/>
<path style="mix-blend-mode:multiply" opacity="0.5" d="M44.953 85.6774C44.953 85.6774 42.7666 80.0837 42.3734 77.6007C42.1069 75.6266 41.9457 73.6397 41.8906 71.6484C41.8906 71.6484 44.0081 76.2282 44.953 79.0353C45.8979 81.8425 45.3806 85.8222 45.3806 85.8222L44.953 85.6774Z" fill="url(#paint63_linear_2996_62118)"/>
<path style="mix-blend-mode:multiply" opacity="0.8" d="M37.8984 81.4983C37.8984 81.4983 39.0641 77.8566 38.6295 74.9184C38.3664 72.7515 38.3063 70.5648 38.4502 68.3867C38.4502 68.3867 38.7951 72.4768 42.1057 78.967C40.9645 80.1838 39.5081 81.0601 37.8984 81.4983Z" fill="url(#paint64_linear_2996_62118)"/>
<path style="mix-blend-mode:multiply" opacity="0.5" d="M42.2812 61.3854L43.7021 56.1504C43.7718 57.1861 43.7718 58.2253 43.7021 59.261C43.2845 60.005 42.8094 60.7153 42.2812 61.3854Z" fill="url(#paint65_linear_2996_62118)"/>
<g style="mix-blend-mode:multiply">
<path d="M60.2751 75.8972L60.7442 68.3447L57.9922 78.8285L60.2751 75.8972Z" fill="#C98BC2"/>
</g>
<path style="mix-blend-mode:multiply" opacity="0.5" d="M48.3203 59.0063C50.7512 58.8915 53.1663 58.5521 55.5347 57.9924C58.7695 57.1441 62.9561 48.9157 62.9561 48.9157C62.8265 48.4191 62.8506 47.8948 63.0251 47.4121C63.0251 47.4121 60.7973 50.2193 58.197 52.9299C55.5968 55.6405 48.3203 59.0063 48.3203 59.0063Z" fill="url(#paint66_linear_2996_62118)"/>
<path style="mix-blend-mode:multiply" opacity="0.5" d="M50.7073 49.7979C50.7073 49.7979 48.852 53.5085 48.5071 56.164C48.296 57.7664 48.296 59.3896 48.5071 60.992C47.9573 59.4281 47.578 57.8094 47.376 56.164C47.3277 54.5086 49.0382 50.8462 49.0382 50.8462L50.7073 49.7979Z" fill="url(#paint67_linear_2996_62118)"/>
<path style="mix-blend-mode:multiply" opacity="0.5" d="M38.4453 68.8418C38.4453 68.8418 40.8662 72.6698 41.2042 73.5664C41.5421 74.463 42.1146 78.9669 42.1146 78.9669C42.1146 78.9669 38.4384 71.0006 38.4453 68.8418Z" fill="url(#paint68_linear_2996_62118)"/>
<path style="mix-blend-mode:multiply" opacity="0.5" d="M54.9801 75.9875L60.7047 69.1455C60.7047 69.1455 58.1872 74.346 56.7181 76.5186C55.249 78.6912 52.8281 81.9122 52.8281 81.9122C52.8281 81.9122 54.3041 76.8014 54.9801 75.9875Z" fill="url(#paint69_linear_2996_62118)"/>
<g style="mix-blend-mode:multiply">
<path d="M54.4599 48.3916C54.4599 48.3916 52.239 52.0126 52.4666 53.061C52.4666 53.061 51.2872 53.5852 51.0872 52.1782C50.8871 50.7711 51.97 48.7296 51.97 48.7296C51.97 48.7296 52.5907 48.8606 52.6597 49.1572L54.4599 48.3916Z" fill="#EA8BC2"/>
</g>
<path d="M24.375 209.806L24.5888 208.661C24.5888 208.661 35.2656 209.351 41.2317 209.558C47.1977 209.765 54.3363 209.234 54.3363 209.234L54.4191 209.806H24.375Z" fill="url(#paint70_linear_2996_62118)"/>
<path d="M65.0156 208.938C65.0156 208.938 71.6852 209.234 73.6026 209.234C75.52 209.234 79.2376 208.545 81.4861 208.662C83.7345 208.779 83.8932 209.407 83.8932 209.407L83.9484 209.807L65.0639 209.455L65.0156 208.938Z" fill="url(#paint71_linear_2996_62118)"/>
<g style="mix-blend-mode:multiply">
<path d="M70.3443 207.441C70.1194 207.653 69.9611 207.925 69.8888 208.225C69.8165 208.526 69.8334 208.84 69.9374 209.131C69.9662 209.271 70.003 209.409 70.0477 209.545L65.1025 209.441C64.7576 206.993 66.1301 203.565 66.1301 203.565C66.1301 203.565 67.4268 201.689 67.6889 197.785C67.813 198.144 70.4409 203.717 70.3443 207.441Z" fill="#BF8BC2"/>
</g>
<g style="mix-blend-mode:multiply">
<path d="M38.8828 209.751C38.8828 209.751 41.8003 204.488 43.8074 202.66C45.8145 200.833 51.0563 198.777 51.0563 198.777L52.5392 204.723C52.5392 204.723 54.4359 207.889 54.4359 209.806L38.8828 209.751Z" fill="#E0BDD8"/>
</g>
<path style="mix-blend-mode:multiply" opacity="0.3" d="M52.0425 183.052C52.0425 183.052 49.9733 186.129 46.8144 185.997C44.6084 185.79 42.4704 185.123 40.538 184.039C40.3449 182.997 41.1036 180.652 41.1036 180.652C41.1036 180.652 37.7929 178.183 37.7929 177.893C38.0014 177.344 38.2648 176.817 38.5792 176.321C38.5792 176.321 35.2686 155.063 34.9237 153.367C34.5789 151.67 33.0063 148.966 32.5718 148.008C32.4877 147.654 32.4323 147.294 32.4062 146.932C32.4062 146.932 37.3377 152.38 38.3171 153.001C39.2965 153.622 45.9661 148.863 46.5178 147.939C47.0696 147.014 47.8559 136.703 47.8559 136.703L47.4697 146.911C47.4676 146.934 47.4676 146.957 47.4697 146.98L47.5317 147.145L47.6697 147.49C48.249 148.973 49.7388 152.863 49.9044 153.622C49.9091 153.649 49.9091 153.677 49.9044 153.705C49.9044 153.705 49.9044 153.767 49.9044 153.829C50.0078 155.208 49.9595 165.14 50.2147 168.472C50.4768 171.92 51.3252 176.645 51.3252 177.1C51.1271 177.989 50.8643 178.863 50.5389 179.714L52.0425 183.052Z" fill="url(#paint72_linear_2996_62118)"/>
<g style="mix-blend-mode:multiply" opacity="0.3">
<path d="M43.2561 116.473L53.6777 104.555L51.7396 105.459L43.6975 102.81L39.9731 105.707L40.1248 100.334L38.4419 105.707L33.7656 104.555L43.2561 116.473Z" fill="#EA8BC2"/>
</g>
<path d="M43.682 62.7102H43.4268H43.1095C42.9923 62.9309 42.8819 63.1586 42.7647 63.4C42.6474 63.6414 42.537 63.869 42.4198 64.0897L42.0818 64.8139L41.7577 65.5036C41.6335 65.7726 41.5232 66.0347 41.4128 66.2899C41.3025 66.5451 41.199 66.7865 41.1093 67.021H40.3438C40.5438 66.621 40.7507 66.1933 40.9645 65.745C41.1783 65.2967 41.3852 64.8346 41.5921 64.3656L41.9715 63.4896L42.3163 62.6482H41.7439L42.0818 61.9102H42.3646H42.6957H43.0612H43.4268H43.7647C43.8751 61.9102 43.9717 61.9102 44.0544 61.9102L43.682 62.7102Z" fill="white"/>
<path d="M45.7511 63.5792C45.6796 63.7448 45.5943 63.904 45.4959 64.0551C45.393 64.2152 45.2752 64.3653 45.1442 64.5035C45.0105 64.653 44.8627 64.7893 44.7028 64.9104C44.5356 65.0374 44.3552 65.1461 44.1648 65.2346C44.1439 65.563 44.1439 65.8924 44.1648 66.2208C44.1856 66.5299 44.2317 66.8367 44.3027 67.1382H43.3854L43.5303 65.407C43.413 65.6967 43.3026 65.9795 43.1854 66.2622C43.0681 66.545 42.9716 66.8278 42.8681 67.1037L41.9922 67.0692C42.2681 66.5312 42.5371 66.0001 42.7923 65.4691C43.0475 64.938 43.2958 64.3931 43.5372 63.8551L43.951 62.9171L44.3441 61.9722C44.4798 61.9385 44.6184 61.9178 44.7579 61.9101H45.1028C45.1763 61.905 45.25 61.905 45.3235 61.9101C45.4127 61.9265 45.4988 61.9567 45.5787 61.9998C45.6649 62.0451 45.7421 62.1058 45.8063 62.1791C45.8753 62.2681 45.9225 62.3721 45.9443 62.4826C45.968 62.6287 45.968 62.7778 45.9443 62.924C45.9125 63.1507 45.8474 63.3715 45.7511 63.5792ZM43.813 64.8345C43.9073 64.8169 43.9981 64.7843 44.082 64.738C44.1679 64.6965 44.2489 64.6456 44.3234 64.5862L44.5234 64.4069C44.5855 64.3448 44.6407 64.2758 44.6959 64.2138C44.8105 64.0569 44.912 63.8908 44.9994 63.7172C44.9994 63.7172 44.9994 63.6827 45.0338 63.6275C45.0641 63.5636 45.0873 63.4965 45.1028 63.4275C45.1028 63.3447 45.1511 63.2551 45.1718 63.1654C45.1784 63.0712 45.1784 62.9767 45.1718 62.8826C45.1659 62.799 45.1449 62.7172 45.1097 62.6412C45.0705 62.5704 45.0067 62.5164 44.9304 62.4895C44.7373 62.855 44.551 63.2275 44.3717 63.593C44.1924 63.9586 44.02 64.3241 43.8544 64.6966L43.813 64.8345Z" fill="white"/>
<path d="M46.0069 67.2423L46.1931 66.7526L46.3793 66.2491H46.0828H45.7862H45.7379C45.6551 66.4215 45.5655 66.5871 45.4827 66.7526L45.2413 67.2423L44.3516 67.1871C44.8757 66.3526 45.3792 65.5249 45.8758 64.6903C46.3724 63.8558 46.8414 63.0212 47.3035 62.1729L48.3795 62.2349C48.0967 63.0764 47.8346 63.9178 47.5863 64.7524C47.338 65.587 47.1242 66.4284 46.8966 67.2768L46.0069 67.2423ZM47.4553 63.0281L46.7656 64.3248L46.0759 65.6215H46.2276H46.5725C46.7242 65.18 46.869 64.7455 47.0139 64.311C47.1587 63.8765 47.3173 63.4557 47.4553 63.0281Z" fill="white"/>
<path d="M51.7219 62.3582C51.177 63.1928 50.6529 64.0204 50.1563 64.8481C49.6597 65.6758 49.1769 66.5034 48.7147 67.338H47.625C47.9216 66.4828 48.1906 65.6413 48.4458 64.7998C48.701 63.9584 48.9355 63.11 49.1355 62.2686H50.039C49.7631 62.9583 49.501 63.648 49.2596 64.3377C49.0182 65.0274 48.7699 65.7172 48.5699 66.4069C48.9791 65.7126 49.3723 65.0228 49.7493 64.3377C50.1356 63.648 50.5011 62.9583 50.8598 62.2686L51.7219 62.3582Z" fill="white"/>
<path d="M52.0284 65.524C51.955 65.5172 51.8811 65.5172 51.8077 65.524H51.5732H51.2973L50.7248 66.7862H51.3111L51.9318 66.7448L51.6008 67.4828H51.2145H50.8421C50.6559 67.4828 50.4696 67.4828 50.2834 67.4828C50.0972 67.4828 49.911 67.4828 49.7109 67.4828L50.3455 66.1862C50.5455 65.7516 50.7455 65.3171 50.9386 64.8826C51.1318 64.4481 51.3111 64.048 51.4835 63.6342C51.6559 63.2204 51.8215 62.7996 51.9801 62.3789C52.256 62.4134 52.5181 62.4341 52.7733 62.4479H53.2699H53.801L53.4423 63.2617C53.3064 63.2265 53.1681 63.2011 53.0285 63.1859C52.8867 63.1649 52.744 63.1511 52.6009 63.1445H52.4629C52.3112 63.4411 52.1594 63.7308 52.0215 64.0204C51.8835 64.3101 51.7456 64.6067 51.6146 64.9033H51.8008H52.3388L52.0284 65.524Z" fill="white"/>
<path d="M53.8039 67.5385H53.4176H53.0452H51.9141C52.1279 67.104 52.3417 66.6694 52.5417 66.2418C52.7417 65.8142 52.9486 65.3728 53.1418 64.9382C53.3349 64.5037 53.5073 64.1037 53.6797 63.6899C53.8522 63.276 54.0246 62.8553 54.1832 62.4346H55.0178C54.8385 62.7725 54.6522 63.1243 54.4729 63.5036C54.2936 63.883 54.1212 64.2554 53.9418 64.6417L53.4245 65.7797C53.259 66.166 53.0935 66.5315 52.9279 66.8833H53.5073L54.128 66.8419L53.8039 67.5385Z" fill="white"/>
<g style="mix-blend-mode:multiply" opacity="0.73">
<path d="M38.4453 68.3867C38.4453 68.3867 40.7283 71.0352 41.2042 70.718C43.4664 69.1247 45.4735 70.3524 48.8945 70.849C52.9294 71.4284 55.3572 69.6558 55.2192 70.1593C55.0813 70.6628 60.7369 69.7938 60.7369 69.7938L60.2679 75.8909L55.2399 83.733C53.3337 84.7179 51.2746 85.3732 49.1497 85.6711C45.8322 86.085 44.9493 85.6711 44.9493 85.6711L42.825 82.0777C42.9737 81.7764 43.0358 81.4397 43.0043 81.1052C42.8871 80.781 38.8798 72.7182 38.4453 68.3867Z" fill="#E08BC2"/>
</g>
<g style="mix-blend-mode:multiply">
<path d="M9.21875 41.2243L14.5985 36.8584C12.9495 38.4829 11.1479 39.9449 9.21875 41.2243Z" fill="#EA8BC2"/>
</g>
<path fill-rule="evenodd" clip-rule="evenodd" d="M59.5938 39.1691C59.5938 39.1691 64.6218 36.0033 65.1115 35.0308V34.7549C64.4976 35.9205 59.6351 38.7829 59.6351 38.7829L59.5938 39.1691Z" fill="url(#paint73_linear_2996_62118)"/>
<path style="mix-blend-mode:multiply" opacity="0.44" fill-rule="evenodd" clip-rule="evenodd" d="M50.1181 32.5603C49.4322 32.6539 48.7379 32.6678 48.0489 32.6017C47.3592 32.4569 46.1522 32.0086 45.1797 32.2362C45.6976 33.0378 46.4894 33.6237 47.4075 33.8846C48.4393 33.7781 49.3999 33.3088 50.1181 32.5603Z" fill="url(#paint74_linear_2996_62118)"/>
<g style="mix-blend-mode:multiply">
<path d="M63.3984 36.9489C64.1458 33.9415 64.3236 30.8208 63.9226 27.748C64.6041 30.0717 65.0274 32.4634 65.1848 34.8798C65.1848 34.8798 64.233 36.6248 63.3984 36.9489Z" fill="#EA8BC2"/>
</g>
<path d="M98.5094 93.711C92.9799 96.0039 89.0694 97.8919 86.7766 97.6222C85.2877 97.4471 81.3256 96.3354 77.5316 96.1519C75.569 96.0567 74.1033 97.9807 74.7547 99.8346C74.7689 99.8745 74.7824 99.9144 74.7965 99.9543C76.4991 104.852 73.063 110.15 67.8876 110.467C67.6649 110.481 67.4467 110.489 67.233 110.49C66.4071 110.494 65.7209 111.126 65.6907 111.951C65.6469 113.139 65.625 114.428 65.625 115.829C65.625 129.655 67.7273 132.687 71.943 134.709C76.3182 136.807 84.485 134.304 86.7772 134.034C89.0694 133.765 92.9806 135.653 98.51 137.945C104.039 140.238 108.085 141.721 114.963 139.564C121.841 137.406 127.268 130.124 127.268 115.829C127.268 101.534 121.841 94.2511 114.963 92.0933C108.085 89.935 104.039 91.4181 98.5094 93.711Z" fill="#E83F4F"/>
<path d="M114.577 138.336C108.203 140.335 104.505 139.038 99.0024 136.756C98.1238 136.392 97.2857 136.038 96.4894 135.7C91.9146 133.766 88.8918 132.489 86.6266 132.756C86.0916 132.819 85.3443 132.975 84.3981 133.173C81.3121 133.818 75.5677 135.019 72.4998 133.548C69.1248 131.929 66.9124 129.821 66.9124 115.829H65.625C65.625 129.655 67.7273 132.687 71.943 134.709C76.3182 136.807 84.485 134.304 86.7772 134.034C89.0694 133.765 92.9806 135.653 98.51 137.945C104.039 140.238 108.085 141.721 114.963 139.564C121.841 137.406 127.268 130.124 127.268 115.829H125.981C125.981 128.035 121.931 136.028 114.577 138.336Z" fill="#BD1C23"/>
<path d="M99.0041 94.9005C98.1261 95.2642 97.2886 95.6182 96.4924 95.9555C91.9169 97.8892 88.8934 99.167 86.6289 98.9005C86.0946 98.8374 85.3492 98.6823 84.4061 98.4859C82.5239 98.0939 79.9465 97.5577 77.4721 97.4373C77.0563 97.4174 76.6611 97.5635 76.3592 97.8512C76.0592 98.137 75.888 98.5284 75.888 98.9249C75.888 99.0865 75.9163 99.2487 75.9717 99.4071L76.0148 99.5307C76.354 100.507 76.5265 101.52 76.5265 102.545C76.5265 107.414 72.7673 111.458 67.9698 111.752C67.7226 111.766 67.4799 111.775 67.2424 111.776C67.1194 111.777 66.9849 111.854 66.9797 111.997C66.9366 113.181 66.9141 114.471 66.9141 115.828H125.983C125.983 103.621 121.933 95.6285 114.579 93.3214C108.205 91.3208 104.507 92.6185 99.0041 94.9005Z" fill="#BD1C23"/>
<path d="M91.737 116.027C91.737 119.727 88.727 122.736 85.027 122.736C81.327 122.736 78.317 119.726 78.317 116.027C78.317 112.327 81.327 109.317 85.027 109.317C88.727 109.317 91.737 112.327 91.737 116.027ZM76.1406 116.027C76.1406 120.927 80.1271 124.914 85.0276 124.914C89.9282 124.914 93.9153 120.928 93.9153 116.027C93.9153 111.126 89.9288 107.14 85.0276 107.14C80.1271 107.14 76.1406 111.126 76.1406 116.027ZM93.5928 116.027C93.5928 120.75 89.7499 124.592 85.027 124.592C80.3041 124.592 76.4618 120.75 76.4618 116.027C76.4618 111.304 80.3041 107.462 85.027 107.462C89.7499 107.462 93.5928 111.304 93.5928 116.027ZM76.8957 116.027C76.8957 120.51 80.5436 124.158 85.0276 124.158C89.5117 124.158 93.1596 120.51 93.1596 116.027C93.1596 111.543 89.5117 107.895 85.0276 107.895C80.5436 107.895 76.8957 111.543 76.8957 116.027Z" fill="#AEB7D4"/>
<path d="M88.6495 103.052C82.6927 104.314 77.7857 106.798 78.7558 110.866C80.2485 109.053 82.5086 107.895 85.0345 107.895C88.1584 107.895 90.8723 109.668 92.2337 112.258C95.5938 112.627 98.8214 112.726 99.4651 109.488C100.204 105.771 99.4689 103.922 98.401 103.218C96.7705 102.144 94.768 101.755 88.6495 103.052Z" fill="#D6D7E9"/>
<path d="M102.517 125.789H105.324C105.499 125.789 105.64 125.645 105.644 125.469C105.728 121.889 107.218 122.512 107.218 119.494V112.561C107.218 109.543 105.728 110.166 105.644 106.586C105.64 106.41 105.499 106.266 105.324 106.266H102.517C102.34 106.266 102.195 106.41 102.195 106.588V125.467C102.195 125.645 102.34 125.789 102.517 125.789Z" fill="#A14C40"/>
<path d="M102.195 106.588V116.027H107.218V112.562C107.218 109.543 105.728 110.166 105.645 106.586C105.641 106.41 105.5 106.266 105.324 106.266H102.518C102.34 106.266 102.195 106.41 102.195 106.588Z" fill="#783128"/>
<path d="M78.6938 120.007V112.047L22.7422 113.146V118.907L78.6938 120.007Z" fill="#C26152"/>
<path d="M104.445 119.759C104.445 120.061 104.69 120.307 104.992 120.307C105.294 120.307 105.54 120.061 105.54 119.759C105.54 119.458 105.294 119.212 104.992 119.212C104.691 119.212 104.445 119.457 104.445 119.759Z" fill="#FCEDE9"/>
<path d="M104.445 115.281C104.445 115.583 104.69 115.828 104.992 115.828C105.294 115.828 105.54 115.583 105.54 115.281C105.54 114.979 105.294 114.734 104.992 114.734C104.691 114.734 104.445 114.979 104.445 115.281Z" fill="#FCEDE9"/>
<path d="M104.445 116.773C104.445 117.075 104.69 117.32 104.992 117.32C105.294 117.32 105.54 117.075 105.54 116.773C105.54 116.471 105.294 116.226 104.992 116.226C104.691 116.226 104.445 116.471 104.445 116.773Z" fill="#FCEDE9"/>
<path d="M102.836 111.33V120.725H103.699V111.33H102.836Z" fill="#FCEDE9"/>
<path d="M104.445 118.265C104.445 118.567 104.69 118.812 104.992 118.812C105.294 118.812 105.54 118.567 105.54 118.265C105.54 117.963 105.294 117.718 104.992 117.718C104.691 117.718 104.445 117.963 104.445 118.265Z" fill="#FCEDE9"/>
<path d="M104.461 112.296C104.461 112.589 104.698 112.826 104.991 112.826C105.284 112.826 105.521 112.589 105.521 112.296C105.521 112.003 105.284 111.765 104.991 111.765C104.698 111.765 104.461 112.003 104.461 112.296Z" fill="#FCEDE9"/>
<path d="M104.445 113.789C104.445 114.091 104.69 114.336 104.992 114.336C105.294 114.336 105.54 114.091 105.54 113.789C105.54 113.487 105.294 113.242 104.992 113.242C104.691 113.242 104.445 113.486 104.445 113.789Z" fill="#FCEDE9"/>
<path d="M42.7135 119.3L42.2822 119.291V112.762L42.7135 112.753V119.3ZM46.0222 112.688L45.5909 112.697V119.356L46.0222 119.365V112.688ZM49.1963 112.626L48.765 112.634V119.418L49.1963 119.427V112.626ZM52.1863 112.567L51.755 112.576V119.477L52.1863 119.486V112.567ZM54.9929 112.512L54.5616 112.52V119.532L54.9929 119.541V112.512ZM39.1963 112.822L38.765 112.831V119.222L39.1963 119.23V112.822ZM57.6887 112.459L57.2574 112.467V119.586L57.6887 119.594V112.459ZM31.5124 112.973L31.0811 112.982V119.071L31.5124 119.08V112.973ZM27 118.991L27.4313 119V113.053L27 113.062V118.991ZM35.4705 112.896L35.0393 112.904V119.149L35.4705 119.158V112.896ZM72.8081 112.162L72.3768 112.171V119.882L72.8081 119.891V112.162ZM76.1167 112.097L75.6854 112.106V119.947L76.1167 119.956V112.097ZM74.4991 112.129L74.0678 112.137V119.915L74.4991 119.924V112.129ZM77.6365 112.067L77.2052 112.075V119.977L77.6365 119.985V112.067ZM70.9574 112.198L70.5261 112.207V119.846L70.9574 119.854V112.198ZM64.895 112.317L64.4637 112.326V119.727L64.895 119.735V112.317ZM60.1766 112.41L59.7453 112.419V119.635L60.1766 119.643V112.41ZM62.6028 112.363L62.1715 112.371V119.682L62.6028 119.69V112.363ZM67.0514 112.275L66.6201 112.283V119.769L67.0514 119.777V112.275ZM69.0585 112.236L68.6272 112.244V119.808L69.0585 119.817V112.236Z" fill="#FCEDE9"/>
<path d="M10.0156 120.11V121.674H10.8486V120.11H10.0156Z" fill="#783128"/>
<path d="M10.434 122.904C11.0102 122.904 11.5084 122.568 11.7414 122.08C11.8798 121.791 11.6468 121.456 11.3256 121.456H9.54252C9.22131 121.456 8.98828 121.791 9.12667 122.08C9.3597 122.568 9.85728 122.904 10.434 122.904Z" fill="#D9B28D"/>
<path d="M13.8594 119.794V121.358H14.6923V119.794H13.8594Z" fill="#783128"/>
<path d="M14.2778 122.589C14.8539 122.589 15.3521 122.252 15.5852 121.765C15.7236 121.475 15.4905 121.141 15.1693 121.141H13.3863C13.065 121.141 12.832 121.475 12.9704 121.765C13.2041 122.252 13.7017 122.589 14.2778 122.589Z" fill="#D9B28D"/>
<path d="M17.6797 119.301V120.865H18.5126V119.301H17.6797Z" fill="#783128"/>
<path d="M18.0981 122.096C18.6742 122.096 19.1725 121.759 19.4055 121.272C19.5439 120.982 19.3109 120.647 18.9896 120.647H17.2066C16.8854 120.647 16.6523 120.983 16.7907 121.272C17.0238 121.759 17.5213 122.096 18.0981 122.096Z" fill="#D9B28D"/>
<path d="M10.8594 111.943V110.379H10.0264V111.943H10.8594Z" fill="#59060C"/>
<path d="M10.434 109.148C11.0102 109.148 11.5084 109.485 11.7414 109.972C11.8798 110.262 11.6468 110.597 11.3256 110.597H9.54252C9.22131 110.597 8.98828 110.262 9.12667 109.972C9.3597 109.485 9.85728 109.148 10.434 109.148Z" fill="#D9B28D"/>
<path d="M14.7031 112.259V110.694H13.8702V112.259H14.7031Z" fill="#59060C"/>
<path d="M14.2778 109.464C14.8539 109.464 15.3521 109.8 15.5852 110.288C15.7236 110.577 15.4905 110.912 15.1693 110.912H13.3863C13.065 110.912 12.832 110.577 12.9704 110.288C13.2041 109.8 13.7017 109.464 14.2778 109.464Z" fill="#D9B28D"/>
<path d="M18.5234 112.752V111.188H17.6905V112.752H18.5234Z" fill="#59060C"/>
<path d="M18.0981 109.957C18.6742 109.957 19.1725 110.294 19.4055 110.781C19.5439 111.071 19.3109 111.405 18.9896 111.405H17.2066C16.8854 111.405 16.6523 111.071 16.7907 110.781C17.0238 110.294 17.5213 109.957 18.0981 109.957Z" fill="#D9B28D"/>
<path d="M5.88281 114.233C5.88281 115 6.29993 115.662 6.91467 116.027C6.29993 116.39 5.88281 117.053 5.88281 117.82C5.88281 118.92 7.81264 121.142 7.81264 121.142L20.0746 120.193C20.0746 119.55 21.2249 118.906 21.8854 118.906V113.148C21.2185 113.148 20.0746 112.504 20.0746 111.861L7.81264 110.912C7.81264 110.912 5.88281 113.134 5.88281 114.233Z" fill="#A14C40"/>
<path d="M5.88281 114.233C5.88281 115 6.29993 115.662 6.91467 116.026H21.8854V113.148C21.2185 113.148 20.0746 112.504 20.0746 111.86L7.81264 110.912C7.81264 110.912 5.88281 113.134 5.88281 114.233Z" fill="#783128"/>
<path d="M18.0366 117.702C18.5657 117.702 18.9951 118.132 18.9951 118.661C18.9951 119.19 18.5657 119.619 18.0366 119.619C17.5075 119.619 17.0781 119.19 17.0781 118.661C17.0788 118.131 17.5075 117.702 18.0366 117.702Z" fill="#FCEDE9"/>
<path d="M14.853 118.821C14.853 118.287 14.4207 117.855 13.8874 117.855C13.3542 117.855 12.9219 118.287 12.9219 118.821C12.9219 119.354 13.3542 119.786 13.8874 119.786C14.4207 119.786 14.853 119.354 14.853 118.821Z" fill="#FCEDE9"/>
<path d="M10.7046 118.982C10.7046 118.448 10.2723 118.016 9.739 118.016C9.20573 118.016 8.77344 118.448 8.77344 118.982C8.77344 119.515 9.20573 119.947 9.739 119.947C10.2723 119.947 10.7046 119.515 10.7046 118.982Z" fill="#FCEDE9"/>
<path d="M18.0335 118.284C18.242 118.284 18.4107 118.452 18.4107 118.661C18.4107 118.869 18.242 119.038 18.0335 119.038C17.8255 119.038 17.6562 118.869 17.6562 118.661C17.6569 118.452 17.8255 118.284 18.0335 118.284Z" fill="#A14C40"/>
<path d="M14.2635 118.82C14.2635 118.612 14.0944 118.443 13.8857 118.443C13.677 118.443 13.5078 118.612 13.5078 118.82C13.5078 119.029 13.677 119.198 13.8857 119.198C14.0944 119.198 14.2635 119.029 14.2635 118.82Z" fill="#A14C40"/>
<path d="M10.1137 118.982C10.1137 118.772 9.9431 118.601 9.73263 118.601C9.52217 118.601 9.35156 118.772 9.35156 118.982C9.35156 119.193 9.52217 119.363 9.73263 119.363C9.9431 119.363 10.1137 119.193 10.1137 118.982Z" fill="#A14C40"/>
<path d="M18.036 112.437C18.5651 112.437 18.9938 112.866 18.9938 113.395C18.9938 113.924 18.5651 114.353 18.036 114.353C17.5068 114.353 17.0781 113.924 17.0781 113.395C17.0781 112.866 17.5075 112.437 18.036 112.437Z" fill="#FCEDE9"/>
<path d="M13.8797 112.275C14.4088 112.275 14.8376 112.703 14.8376 113.233C14.8376 113.762 14.4088 114.19 13.8797 114.19C13.3506 114.19 12.9219 113.762 12.9219 113.233C12.9219 112.703 13.3506 112.275 13.8797 112.275Z" fill="#FCEDE9"/>
<path d="M9.73909 112.115C10.2682 112.115 10.6969 112.543 10.6969 113.072C10.6969 113.602 10.2682 114.03 9.73909 114.03C9.20996 114.03 8.78125 113.602 8.78125 113.072C8.78125 112.543 9.21061 112.115 9.73909 112.115Z" fill="#FCEDE9"/>
<path d="M18.4325 113.395C18.4325 113.179 18.257 113.003 18.0405 113.003C17.824 113.003 17.6484 113.179 17.6484 113.395C17.6484 113.612 17.824 113.787 18.0405 113.787C18.257 113.787 18.4325 113.612 18.4325 113.395Z" fill="#783128"/>
<path d="M14.2762 113.233C14.2762 113.016 14.1007 112.841 13.8842 112.841C13.6677 112.841 13.4922 113.016 13.4922 113.233C13.4922 113.449 13.6677 113.625 13.8842 113.625C14.1007 113.625 14.2762 113.449 14.2762 113.233Z" fill="#783128"/>
<path d="M10.12 113.072C10.12 112.855 9.94446 112.68 9.72795 112.68C9.51145 112.68 9.33594 112.855 9.33594 113.072C9.33594 113.288 9.51145 113.464 9.72795 113.464C9.94446 113.464 10.12 113.288 10.12 113.072Z" fill="#783128"/>
<path d="M21.8828 113.152V118.905L22.7454 118.909V113.147L21.8828 113.152Z" fill="#FCEDE9"/>
<path d="M91.1177 116.027C91.1177 112.664 88.3911 109.937 85.0276 109.937C81.6641 109.937 78.9375 112.664 78.9375 116.027C78.9375 119.391 81.6641 122.117 85.0276 122.117C88.3911 122.117 91.1177 119.391 91.1177 116.027Z" fill="#59060C"/>
<path d="M105.059 119.756C105.059 119.801 105.023 119.837 104.979 119.837H102.829L21.8777 118.39L18.542 118.412C18.4976 118.413 18.4609 118.377 18.4609 118.333V118.332C18.4609 118.288 18.497 118.252 18.5408 118.251L21.8784 118.229L102.83 119.676H104.979C105.024 119.676 105.059 119.712 105.059 119.756Z" fill="#FCEDE9"/>
<path d="M105.066 118.264C105.066 118.309 105.03 118.345 104.986 118.345H102.836L21.8851 117.47L14.2076 118.346C14.1638 118.351 14.1239 118.319 14.1188 118.275C14.1091 118.23 14.1452 118.192 14.1896 118.186L21.8754 117.31L102.835 118.184H104.984C105.031 118.184 105.066 118.22 105.066 118.264Z" fill="#FCEDE9"/>
<path d="M105.062 116.771C105.062 116.815 105.026 116.851 104.981 116.851H102.831L21.8743 116.574L9.73401 118.41C9.69023 118.417 9.64903 118.386 9.64195 118.343C9.63358 118.298 9.66577 118.258 9.71019 118.251L21.8627 116.414L102.831 116.69H104.981C105.026 116.69 105.062 116.726 105.062 116.771Z" fill="#FCEDE9"/>
<path d="M105.059 112.294C105.059 112.338 105.023 112.374 104.979 112.374H102.829L21.8803 113.83L18.5408 113.808C18.497 113.807 18.4609 113.772 18.4609 113.727V113.726C18.4609 113.682 18.4976 113.646 18.542 113.647L21.8796 113.669L102.828 112.213H104.979C105.024 112.213 105.059 112.249 105.059 112.294Z" fill="#FCEDE9"/>
<path d="M105.066 113.787C105.066 113.831 105.03 113.867 104.985 113.867H102.835L21.8859 114.751L14.1897 113.874C14.1453 113.868 14.1086 113.834 14.1189 113.785C14.1241 113.741 14.1634 113.709 14.2078 113.714L21.8949 114.591L102.835 113.706H104.985C105.03 113.706 105.066 113.742 105.066 113.787Z" fill="#FCEDE9"/>
<path d="M105.062 115.279C105.062 115.324 105.026 115.36 104.981 115.36H102.831L21.8743 115.646L9.71017 113.807C9.6664 113.801 9.63357 113.763 9.64193 113.716C9.64901 113.672 9.68957 113.642 9.73399 113.648L21.8865 115.486L102.831 115.199H104.981C105.026 115.199 105.062 115.235 105.062 115.279Z" fill="#FCEDE9"/>
<path d="M75.9782 114.701C75.9437 115.122 75.1919 118.784 74.5091 118.784C73.9718 118.83 73.4547 119.01 73.0055 119.309C72.5434 119.502 71.5364 119.667 71.0743 119.929C70.4207 120.159 69.7424 120.312 69.0534 120.385L67.2877 120.709C67.1906 119.722 67.4339 118.731 67.9775 117.902C67.9775 117.902 67.3222 113.984 66.736 113.984C66.1497 113.984 64.7772 116.467 64.7772 116.467C64.7772 116.467 64.1909 111.108 64.384 110.453C64.5772 109.797 66.736 107.252 66.736 107.252C66.736 107.252 66.5429 99.4101 65.5635 94.7683C64.5841 90.1265 63.8047 85.526 63.8047 85.526C65.9693 83.8385 68.3491 82.4468 70.8812 81.3877C71.7607 82.6982 72.2224 84.2444 72.2054 85.8226C72.2054 88.5194 69.8397 103.907 70.2329 106.031C70.6053 108.025 75.3299 113.494 75.8954 114.529C75.9378 114.578 75.9664 114.637 75.9782 114.701Z" fill="url(#paint75_linear_2996_62118)"/>
<defs>
<linearGradient id="paint0_linear_2996_62118" x1="70.6517" y1="196.261" x2="70.6517" y2="183.053" gradientUnits="userSpaceOnUse">
<stop offset="0.02" stop-color="#FFB374"/>
<stop offset="1" stop-color="#FF9577"/>
</linearGradient>
<linearGradient id="paint1_linear_2996_62118" x1="46.1581" y1="195.936" x2="46.1581" y2="184.956" gradientUnits="userSpaceOnUse">
<stop offset="0.02" stop-color="#FFB374"/>
<stop offset="1" stop-color="#FF9577"/>
</linearGradient>
<linearGradient id="paint2_linear_2996_62118" x1="38.8886" y1="209.406" x2="38.8886" y2="191.066" gradientUnits="userSpaceOnUse">
<stop stop-color="#D191FF"/>
<stop offset="1" stop-color="#CF95FF"/>
</linearGradient>
<linearGradient id="paint3_linear_2996_62118" x1="74.4112" y1="209.455" x2="74.4112" y2="192.288" gradientUnits="userSpaceOnUse">
<stop stop-color="#D191FF"/>
<stop offset="1" stop-color="#CF95FF"/>
</linearGradient>
<linearGradient id="paint4_linear_2996_62118" x1="74.479" y1="209.806" x2="74.479" y2="203.578" gradientUnits="userSpaceOnUse">
<stop stop-color="#FFC4BA"/>
<stop offset="1" stop-color="#FFE7E5"/>
</linearGradient>
<linearGradient id="paint5_linear_2996_62118" x1="39.4039" y1="209.807" x2="39.4039" y2="204.724" gradientUnits="userSpaceOnUse">
<stop stop-color="#FFC4BA"/>
<stop offset="1" stop-color="#FFE7E5"/>
</linearGradient>
<linearGradient id="paint6_linear_2996_62118" x1="63.3974" y1="26.8099" x2="63.3974" y2="0.448795" gradientUnits="userSpaceOnUse">
<stop stop-color="#FF8959"/>
<stop offset="1" stop-color="#FFA73B"/>
</linearGradient>
<linearGradient id="paint7_linear_2996_62118" x1="39.0156" y1="20.899" x2="79.4399" y2="20.899" gradientUnits="userSpaceOnUse">
<stop stop-color="#FFB159"/>
<stop offset="1" stop-color="#FFA73B"/>
</linearGradient>
<linearGradient id="paint8_linear_2996_62118" x1="58.6588" y1="38.956" x2="58.6588" y2="3.42853" gradientUnits="userSpaceOnUse">
<stop stop-color="#FF4C59"/>
<stop offset="1" stop-color="#FF813B"/>
</linearGradient>
<linearGradient id="paint9_linear_2996_62118" x1="12.7441" y1="49.0604" x2="12.7441" y2="37.8456" gradientUnits="userSpaceOnUse">
<stop stop-color="#FF9577"/>
<stop offset="0.98" stop-color="#FFB374"/>
</linearGradient>
<linearGradient id="paint10_linear_2996_62118" x1="57.6135" y1="47.9222" x2="57.6135" y2="12.712" gradientUnits="userSpaceOnUse">
<stop offset="0.02" stop-color="#DB3440"/>
<stop offset="1" stop-color="#922046"/>
</linearGradient>
<linearGradient id="paint11_linear_2996_62118" x1="55.7911" y1="41.6046" x2="55.7911" y2="11.3466" gradientUnits="userSpaceOnUse">
<stop offset="0.02" stop-color="#FFB374"/>
<stop offset="1" stop-color="#FF9577"/>
</linearGradient>
<linearGradient id="paint12_linear_2996_62118" x1="68.8044" y1="35.8586" x2="68.8044" y2="27.3474" gradientUnits="userSpaceOnUse">
<stop offset="0.02" stop-color="#FFB374"/>
<stop offset="1" stop-color="#FF9577"/>
</linearGradient>
<linearGradient id="paint13_linear_2996_62118" x1="56.7645" y1="53.7502" x2="56.7645" y2="37.6797" gradientUnits="userSpaceOnUse">
<stop offset="0.02" stop-color="#FF8D5B"/>
<stop offset="1" stop-color="#FF6F6B"/>
</linearGradient>
<linearGradient id="paint14_linear_2996_62118" x1="24.6401" y1="76.5182" x2="24.6401" y2="47.2327" gradientUnits="userSpaceOnUse">
<stop offset="0.02" stop-color="#FFB374"/>
<stop offset="1" stop-color="#FF9577"/>
</linearGradient>
<linearGradient id="paint15_linear_2996_62118" x1="14.7574" y1="75.2838" x2="14.7574" y2="10.8845" gradientUnits="userSpaceOnUse">
<stop stop-color="#FFC4BA"/>
<stop offset="1" stop-color="#FFD9D6"/>
</linearGradient>
<linearGradient id="paint16_linear_2996_62118" x1="23.5218" y1="72.3933" x2="23.5218" y2="18.2227" gradientUnits="userSpaceOnUse">
<stop stop-color="white"/>
<stop offset="1" stop-color="#E5658E"/>
</linearGradient>
<linearGradient id="paint17_linear_2996_62118" x1="13.9586" y1="73.566" x2="13.9586" y2="20.8438" gradientUnits="userSpaceOnUse">
<stop stop-color="white"/>
<stop offset="1" stop-color="#E5658E"/>
</linearGradient>
<linearGradient id="paint18_linear_2996_62118" x1="10.783" y1="42.9632" x2="10.783" y2="33.252" gradientUnits="userSpaceOnUse">
<stop stop-color="#FF9577"/>
<stop offset="0.98" stop-color="#FF6A4A"/>
</linearGradient>
<linearGradient id="paint19_linear_2996_62118" x1="11.7182" y1="44.9841" x2="11.7182" y2="40.9492" gradientUnits="userSpaceOnUse">
<stop stop-color="#FF9577"/>
<stop offset="0.98" stop-color="#FF6A4A"/>
</linearGradient>
<linearGradient id="paint20_linear_2996_62118" x1="55.8315" y1="49.0535" x2="55.8315" y2="10.8637" gradientUnits="userSpaceOnUse">
<stop offset="0.01" stop-color="#F25259"/>
<stop offset="1" stop-color="#A73646"/>
</linearGradient>
<linearGradient id="paint21_linear_2996_62118" x1="38.6303" y1="81.9115" x2="38.6303" y2="52.9639" gradientUnits="userSpaceOnUse">
<stop stop-color="#DD0051"/>
<stop offset="1" stop-color="#FF3734"/>
</linearGradient>
<linearGradient id="paint22_linear_2996_62118" x1="52.1108" y1="186.004" x2="52.1108" y2="84.4423" gradientUnits="userSpaceOnUse">
<stop stop-color="#FFB698"/>
<stop offset="1" stop-color="#FFE39F"/>
</linearGradient>
<linearGradient id="paint23_linear_2996_62118" x1="57.0783" y1="87.5951" x2="57.0783" y2="47.1706" gradientUnits="userSpaceOnUse">
<stop stop-color="#FF1651"/>
<stop offset="1" stop-color="#FF4B48"/>
</linearGradient>
<linearGradient id="paint24_linear_2996_62118" x1="48.8853" y1="89.0568" x2="48.8853" y2="84.7184" gradientUnits="userSpaceOnUse">
<stop offset="0.02" stop-color="#B54822"/>
<stop offset="1" stop-color="#CE3F4B"/>
</linearGradient>
<linearGradient id="paint25_linear_2996_62118" x1="53.1837" y1="28.3546" x2="59.9912" y2="28.3546" gradientUnits="userSpaceOnUse">
<stop stop-color="#E5658E"/>
<stop offset="1" stop-color="white"/>
</linearGradient>
<linearGradient id="paint26_linear_2996_62118" x1="51.2419" y1="89.5331" x2="51.2419" y2="86.4569" gradientUnits="userSpaceOnUse">
<stop stop-color="#FFB698"/>
<stop offset="1" stop-color="#FFE39F"/>
</linearGradient>
<linearGradient id="paint27_linear_2996_62118" x1="58.3794" y1="107.783" x2="58.3794" y2="94.7197" gradientUnits="userSpaceOnUse">
<stop stop-color="#E5658E"/>
<stop offset="1" stop-color="white"/>
</linearGradient>
<linearGradient id="paint28_linear_2996_62118" x1="38.7046" y1="94.7822" x2="38.7046" y2="90.7129" gradientUnits="userSpaceOnUse">
<stop stop-color="#E5658E"/>
<stop offset="1" stop-color="white"/>
</linearGradient>
<linearGradient id="paint29_linear_2996_62118" x1="61.0392" y1="122.247" x2="61.0392" y2="108.225" gradientUnits="userSpaceOnUse">
<stop stop-color="white"/>
<stop offset="1" stop-color="#E5658E"/>
</linearGradient>
<linearGradient id="paint30_linear_2996_62118" x1="43.865" y1="142.111" x2="43.865" y2="87.8711" gradientUnits="userSpaceOnUse">
<stop stop-color="white"/>
<stop offset="1" stop-color="#E5658E"/>
</linearGradient>
<linearGradient id="paint31_linear_2996_62118" x1="45.9497" y1="22.4167" x2="45.9497" y2="17.6094" gradientUnits="userSpaceOnUse">
<stop offset="0.02" stop-color="#E05259"/>
<stop offset="1" stop-color="#A73646"/>
</linearGradient>
<linearGradient id="paint32_linear_2996_62118" x1="53.1328" y1="19.9261" x2="61.0991" y2="19.9261" gradientUnits="userSpaceOnUse">
<stop stop-color="#A73646"/>
<stop offset="0.98" stop-color="#E05259"/>
</linearGradient>
<linearGradient id="paint33_linear_2996_62118" x1="56.9813" y1="31.2446" x2="56.9813" y2="18.6572" gradientUnits="userSpaceOnUse">
<stop stop-color="white"/>
<stop offset="1" stop-color="#E5658E"/>
</linearGradient>
<linearGradient id="paint34_linear_2996_62118" x1="56.7015" y1="29.6169" x2="56.7015" y2="22.6576" gradientUnits="userSpaceOnUse">
<stop stop-color="#FFC4BA"/>
<stop offset="1" stop-color="#FFD9D6"/>
</linearGradient>
<linearGradient id="paint35_linear_2996_62118" x1="56.8221" y1="25.1891" x2="56.8221" y2="21.9888" gradientUnits="userSpaceOnUse">
<stop offset="0.02" stop-color="#FF8D5B"/>
<stop offset="1" stop-color="#FF6F6B"/>
</linearGradient>
<linearGradient id="paint36_linear_2996_62118" x1="45.1189" y1="28.4792" x2="47.3122" y2="28.4792" gradientUnits="userSpaceOnUse">
<stop stop-color="#E5658E"/>
<stop offset="1" stop-color="white"/>
</linearGradient>
<linearGradient id="paint37_linear_2996_62118" x1="46.1849" y1="29.5059" x2="46.1849" y2="21.7741" gradientUnits="userSpaceOnUse">
<stop stop-color="#FFC4BA"/>
<stop offset="1" stop-color="#FFD9D6"/>
</linearGradient>
<linearGradient id="paint38_linear_2996_62118" x1="46.0145" y1="25.1475" x2="46.0145" y2="21.1885" gradientUnits="userSpaceOnUse">
<stop offset="0.02" stop-color="#FF8D5B"/>
<stop offset="1" stop-color="#FF6F6B"/>
</linearGradient>
<linearGradient id="paint39_linear_2996_62118" x1="51.5789" y1="32.654" x2="45.3771" y2="31.1195" gradientUnits="userSpaceOnUse">
<stop stop-color="#FFC2C4"/>
<stop offset="1" stop-color="#E5658E"/>
</linearGradient>
<linearGradient id="paint40_linear_2996_62118" x1="50.4206" y1="33.1121" x2="48.9621" y2="32.7512" gradientUnits="userSpaceOnUse">
<stop stop-color="#B04C8E"/>
<stop offset="1" stop-color="#FFBDAC"/>
</linearGradient>
<linearGradient id="paint41_linear_2996_62118" x1="54.492" y1="35.4382" x2="54.492" y2="34.0243" gradientUnits="userSpaceOnUse">
<stop stop-color="white"/>
<stop offset="1" stop-color="#E5658E"/>
</linearGradient>
<linearGradient id="paint42_linear_2996_62118" x1="46.029" y1="30.321" x2="46.029" y2="19.4786" gradientUnits="userSpaceOnUse">
<stop stop-color="white"/>
<stop offset="1" stop-color="#E5658E"/>
</linearGradient>
<linearGradient id="paint43_linear_2996_62118" x1="67.9522" y1="8.37374" x2="74.1252" y2="8.37374" gradientUnits="userSpaceOnUse">
<stop stop-color="#E5658E"/>
<stop offset="1" stop-color="white"/>
</linearGradient>
<linearGradient id="paint44_linear_2996_62118" x1="42.8231" y1="47.2464" x2="42.8231" y2="32.0449" gradientUnits="userSpaceOnUse">
<stop stop-color="#A93656"/>
<stop offset="1" stop-color="white"/>
</linearGradient>
<linearGradient id="paint45_linear_2996_62118" x1="66.8407" y1="47.9773" x2="66.8407" y2="24.1475" gradientUnits="userSpaceOnUse">
<stop stop-color="#A93656"/>
<stop offset="1" stop-color="white"/>
</linearGradient>
<linearGradient id="paint46_linear_2996_62118" x1="62.2344" y1="24.8858" x2="68.7591" y2="24.8858" gradientUnits="userSpaceOnUse">
<stop stop-color="#A43648"/>
<stop offset="1" stop-color="white"/>
</linearGradient>
<linearGradient id="paint47_linear_2996_62118" x1="56.7656" y1="19.5749" x2="68.815" y2="19.5749" gradientUnits="userSpaceOnUse">
<stop stop-color="#A43648"/>
<stop offset="1" stop-color="white"/>
</linearGradient>
<linearGradient id="paint48_linear_2996_62118" x1="44.8675" y1="14.9947" x2="56.7651" y2="14.9947" gradientUnits="userSpaceOnUse">
<stop stop-color="white"/>
<stop offset="1" stop-color="#A43648"/>
</linearGradient>
<linearGradient id="paint49_linear_2996_62118" x1="70.6764" y1="119.218" x2="70.6764" y2="108.962" gradientUnits="userSpaceOnUse">
<stop stop-color="white"/>
<stop offset="1" stop-color="#E5658E"/>
</linearGradient>
<linearGradient id="paint50_linear_2996_62118" x1="44.2081" y1="109.493" x2="44.2081" y2="88.5742" gradientUnits="userSpaceOnUse">
<stop stop-color="white"/>
<stop offset="1" stop-color="#E5658E"/>
</linearGradient>
<linearGradient id="paint51_linear_2996_62118" x1="36.2756" y1="159.098" x2="36.2756" y2="146.959" gradientUnits="userSpaceOnUse">
<stop stop-color="white"/>
<stop offset="1" stop-color="#E5658E"/>
</linearGradient>
<linearGradient id="paint52_linear_2996_62118" x1="44.6002" y1="183.053" x2="44.6002" y2="162.009" gradientUnits="userSpaceOnUse">
<stop stop-color="#E5658E"/>
<stop offset="1" stop-color="white"/>
</linearGradient>
<linearGradient id="paint53_linear_2996_62118" x1="58.418" y1="160.236" x2="58.418" y2="147.359" gradientUnits="userSpaceOnUse">
<stop stop-color="white"/>
<stop offset="1" stop-color="#E5658E"/>
</linearGradient>
<linearGradient id="paint54_linear_2996_62118" x1="67.2959" y1="183.515" x2="67.2959" y2="168.686" gradientUnits="userSpaceOnUse">
<stop stop-color="#E5658E"/>
<stop offset="1" stop-color="white"/>
</linearGradient>
<linearGradient id="paint55_linear_2996_62118" x1="60.7424" y1="106.913" x2="60.7424" y2="88.4082" gradientUnits="userSpaceOnUse">
<stop stop-color="white"/>
<stop offset="1" stop-color="#E5658E"/>
</linearGradient>
<linearGradient id="paint56_linear_2996_62118" x1="31.3658" y1="139.324" x2="31.3658" y2="99.624" gradientUnits="userSpaceOnUse">
<stop stop-color="white"/>
<stop offset="1" stop-color="#E5658E"/>
</linearGradient>
<linearGradient id="paint57_linear_2996_62118" x1="39.9688" y1="113.439" x2="45.114" y2="113.439" gradientUnits="userSpaceOnUse">
<stop stop-color="white"/>
<stop offset="1" stop-color="#E5658E"/>
</linearGradient>
<linearGradient id="paint58_linear_2996_62118" x1="48.233" y1="153.719" x2="48.233" y2="146.925" gradientUnits="userSpaceOnUse">
<stop stop-color="white"/>
<stop offset="1" stop-color="#E5658E"/>
</linearGradient>
<linearGradient id="paint59_linear_2996_62118" x1="15.0497" y1="73.5659" x2="15.0497" y2="59.0059" gradientUnits="userSpaceOnUse">
<stop stop-color="#E5658E"/>
<stop offset="1" stop-color="white"/>
</linearGradient>
<linearGradient id="paint60_linear_2996_62118" x1="66.8321" y1="82.9876" x2="66.8321" y2="57.3438" gradientUnits="userSpaceOnUse">
<stop stop-color="#AC526A"/>
<stop offset="1" stop-color="white"/>
</linearGradient>
<linearGradient id="paint61_linear_2996_62118" x1="57.9942" y1="83.7391" x2="57.9942" y2="69.7998" gradientUnits="userSpaceOnUse">
<stop stop-color="#AC526A"/>
<stop offset="1" stop-color="white"/>
</linearGradient>
<linearGradient id="paint62_linear_2996_62118" x1="50.8295" y1="86.0912" x2="50.8295" y2="67.7998" gradientUnits="userSpaceOnUse">
<stop stop-color="#AC526A"/>
<stop offset="1" stop-color="white"/>
</linearGradient>
<linearGradient id="paint63_linear_2996_62118" x1="43.7046" y1="85.8222" x2="43.7046" y2="71.6484" gradientUnits="userSpaceOnUse">
<stop stop-color="#AC526A"/>
<stop offset="1" stop-color="white"/>
</linearGradient>
<linearGradient id="paint64_linear_2996_62118" x1="40.0021" y1="81.4983" x2="40.0021" y2="68.3867" gradientUnits="userSpaceOnUse">
<stop stop-color="#AC526A"/>
<stop offset="1" stop-color="white"/>
</linearGradient>
<linearGradient id="paint65_linear_2996_62118" x1="43.0193" y1="61.3992" x2="43.0193" y2="56.1642" gradientUnits="userSpaceOnUse">
<stop stop-color="#AC526A"/>
<stop offset="1" stop-color="white"/>
</linearGradient>
<linearGradient id="paint66_linear_2996_62118" x1="48.3203" y1="53.2058" x2="63.0251" y2="53.2058" gradientUnits="userSpaceOnUse">
<stop stop-color="white"/>
<stop offset="1" stop-color="#AC526A"/>
</linearGradient>
<linearGradient id="paint67_linear_2996_62118" x1="49.0037" y1="60.9989" x2="49.0037" y2="49.7979" gradientUnits="userSpaceOnUse">
<stop stop-color="white"/>
<stop offset="1" stop-color="#AC526A"/>
</linearGradient>
<linearGradient id="paint68_linear_2996_62118" x1="40.28" y1="78.9669" x2="40.28" y2="68.8418" gradientUnits="userSpaceOnUse">
<stop stop-color="white"/>
<stop offset="1" stop-color="#AC526A"/>
</linearGradient>
<linearGradient id="paint69_linear_2996_62118" x1="56.7664" y1="81.9122" x2="56.7664" y2="69.1455" gradientUnits="userSpaceOnUse">
<stop stop-color="white"/>
<stop offset="1" stop-color="#AC526A"/>
</linearGradient>
<linearGradient id="paint70_linear_2996_62118" x1="39.4039" y1="209.806" x2="39.4039" y2="208.661" gradientUnits="userSpaceOnUse">
<stop stop-color="#744FD8"/>
<stop offset="1" stop-color="#3996F7"/>
</linearGradient>
<linearGradient id="paint71_linear_2996_62118" x1="74.4854" y1="209.807" x2="74.4854" y2="208.648" gradientUnits="userSpaceOnUse">
<stop stop-color="#744FD8"/>
<stop offset="1" stop-color="#3996F7"/>
</linearGradient>
<linearGradient id="paint72_linear_2996_62118" x1="42.2209" y1="186.004" x2="42.2209" y2="136.731" gradientUnits="userSpaceOnUse">
<stop stop-color="#E5658E"/>
<stop offset="1" stop-color="white"/>
</linearGradient>
<linearGradient id="paint73_linear_2996_62118" x1="59.5938" y1="36.9758" x2="65.0839" y2="36.9758" gradientUnits="userSpaceOnUse">
<stop stop-color="#FFC4BA"/>
<stop offset="1" stop-color="#FFD9D6"/>
</linearGradient>
<linearGradient id="paint74_linear_2996_62118" x1="49.4823" y1="33.0229" x2="44.5784" y2="33.4642" gradientUnits="userSpaceOnUse">
<stop offset="0.01" stop-color="#E36365"/>
<stop offset="1" stop-color="#CD6683"/>
</linearGradient>
<linearGradient id="paint75_linear_2996_62118" x1="69.9087" y1="120.709" x2="69.9087" y2="81.4084" gradientUnits="userSpaceOnUse">
<stop offset="0.02" stop-color="#FFB374"/>
<stop offset="1" stop-color="#FF9577"/>
</linearGradient>
</defs>
</svg>
