<svg width="84" height="84" viewBox="0 0 84 84" fill="none" xmlns="http://www.w3.org/2000/svg">
<g filter="url(#filter0_dd_2933_60216)">
<rect width="60" height="60" rx="30" transform="matrix(0 -1 -1 0 72 62)" fill="white"/>
<path d="M38.3058 38.6923C38.4026 38.7899 38.5175 38.8672 38.6441 38.92C38.7706 38.9728 38.9062 39 39.0432 39C39.1802 39 39.3159 38.9728 39.4424 38.92C39.5689 38.8672 39.6839 38.7899 39.7807 38.6923L45.6942 32.7419C45.7912 32.6445 45.8681 32.5288 45.9205 32.4015C45.973 32.2742 46 32.1377 46 31.9998C46 31.862 45.973 31.7255 45.9205 31.5982C45.8681 31.4709 45.7912 31.3552 45.6942 31.2578L39.7807 25.3074C39.6838 25.2099 39.5689 25.1326 39.4423 25.0799C39.3158 25.0271 39.1802 25 39.0432 25C38.9063 25 38.7707 25.0271 38.6441 25.0799C38.5176 25.1326 38.4026 25.2099 38.3058 25.3074C38.2089 25.4048 38.1321 25.5205 38.0797 25.6478C38.0273 25.7751 38.0003 25.9116 38.0003 26.0494C38.0003 26.1872 38.0273 26.3237 38.0797 26.451C38.1321 26.5783 38.2089 26.694 38.3058 26.7915L43.4805 31.9998L38.3058 37.2082C38.2088 37.3056 38.1319 37.4213 38.0795 37.5486C38.027 37.6759 38 37.8124 38 37.9503C38 38.0881 38.027 38.2246 38.0795 38.3519C38.1319 38.4793 38.2088 38.5949 38.3058 38.6923Z" fill="#0C3A66"/>
</g>
<defs>
<filter id="filter0_dd_2933_60216" x="0" y="0" width="84" height="84" filterUnits="userSpaceOnUse" color-interpolation-filters="sRGB">
<feFlood flood-opacity="0" result="BackgroundImageFix"/>
<feColorMatrix in="SourceAlpha" type="matrix" values="0 0 0 0 0 0 0 0 0 0 0 0 0 0 0 0 0 0 127 0" result="hardAlpha"/>
<feMorphology radius="4" operator="erode" in="SourceAlpha" result="effect1_dropShadow_2933_60216"/>
<feOffset dy="4"/>
<feGaussianBlur stdDeviation="3"/>
<feColorMatrix type="matrix" values="0 0 0 0 0.0627451 0 0 0 0 0.0941176 0 0 0 0 0.156863 0 0 0 0.1 0"/>
<feBlend mode="normal" in2="BackgroundImageFix" result="effect1_dropShadow_2933_60216"/>
<feColorMatrix in="SourceAlpha" type="matrix" values="0 0 0 0 0 0 0 0 0 0 0 0 0 0 0 0 0 0 127 0" result="hardAlpha"/>
<feMorphology radius="3" operator="erode" in="SourceAlpha" result="effect2_dropShadow_2933_60216"/>
<feOffset dy="10"/>
<feGaussianBlur stdDeviation="7.5"/>
<feColorMatrix type="matrix" values="0 0 0 0 0.0627451 0 0 0 0 0.0941176 0 0 0 0 0.156863 0 0 0 0.1 0"/>
<feBlend mode="normal" in2="effect1_dropShadow_2933_60216" result="effect2_dropShadow_2933_60216"/>
<feBlend mode="normal" in="SourceGraphic" in2="effect2_dropShadow_2933_60216" result="shape"/>
</filter>
</defs>
</svg>
