<svg width="84" height="84" viewBox="0 0 84 84" fill="none" xmlns="http://www.w3.org/2000/svg">
<g filter="url(#filter0_dd_2933_60219)">
<rect x="12" y="62" width="60" height="60" rx="30" transform="rotate(-90 12 62)" fill="white"/>
<path d="M45.6942 38.6923C45.5974 38.7899 45.4825 38.8672 45.3559 38.92C45.2294 38.9728 45.0938 39 44.9568 39C44.8198 39 44.6841 38.9728 44.5576 38.92C44.4311 38.8672 44.3161 38.7899 44.2193 38.6923L38.3058 32.7419C38.2088 32.6445 38.1319 32.5288 38.0795 32.4015C38.027 32.2742 38 32.1377 38 31.9998C38 31.862 38.027 31.7255 38.0795 31.5982C38.1319 31.4709 38.2088 31.3552 38.3058 31.2578L44.2193 25.3074C44.3162 25.2099 44.4311 25.1326 44.5577 25.0799C44.6842 25.0271 44.8198 25 44.9568 25C45.0937 25 45.2293 25.0271 45.3559 25.0799C45.4824 25.1326 45.5974 25.2099 45.6942 25.3074C45.7911 25.4048 45.8679 25.5205 45.9203 25.6478C45.9727 25.7751 45.9997 25.9116 45.9997 26.0494C45.9997 26.1872 45.9727 26.3237 45.9203 26.451C45.8679 26.5783 45.7911 26.694 45.6942 26.7915L40.5195 31.9998L45.6942 37.2082C45.7912 37.3056 45.8681 37.4213 45.9205 37.5486C45.973 37.6759 46 37.8124 46 37.9503C46 38.0881 45.973 38.2246 45.9205 38.3519C45.8681 38.4793 45.7912 38.5949 45.6942 38.6923Z" fill="#0C3A66"/>
</g>
<defs>
<filter id="filter0_dd_2933_60219" x="0" y="0" width="84" height="84" filterUnits="userSpaceOnUse" color-interpolation-filters="sRGB">
<feFlood flood-opacity="0" result="BackgroundImageFix"/>
<feColorMatrix in="SourceAlpha" type="matrix" values="0 0 0 0 0 0 0 0 0 0 0 0 0 0 0 0 0 0 127 0" result="hardAlpha"/>
<feMorphology radius="4" operator="erode" in="SourceAlpha" result="effect1_dropShadow_2933_60219"/>
<feOffset dy="4"/>
<feGaussianBlur stdDeviation="3"/>
<feColorMatrix type="matrix" values="0 0 0 0 0.0627451 0 0 0 0 0.0941176 0 0 0 0 0.156863 0 0 0 0.1 0"/>
<feBlend mode="normal" in2="BackgroundImageFix" result="effect1_dropShadow_2933_60219"/>
<feColorMatrix in="SourceAlpha" type="matrix" values="0 0 0 0 0 0 0 0 0 0 0 0 0 0 0 0 0 0 127 0" result="hardAlpha"/>
<feMorphology radius="3" operator="erode" in="SourceAlpha" result="effect2_dropShadow_2933_60219"/>
<feOffset dy="10"/>
<feGaussianBlur stdDeviation="7.5"/>
<feColorMatrix type="matrix" values="0 0 0 0 0.0627451 0 0 0 0 0.0941176 0 0 0 0 0.156863 0 0 0 0.1 0"/>
<feBlend mode="normal" in2="effect1_dropShadow_2933_60219" result="effect2_dropShadow_2933_60219"/>
<feBlend mode="normal" in="SourceGraphic" in2="effect2_dropShadow_2933_60219" result="shape"/>
</filter>
</defs>
</svg>
