<svg width="25" height="25" viewBox="0 0 25 25" fill="none" xmlns="http://www.w3.org/2000/svg">
<g clip-path="url(#clip0_3003_66257)">
<path d="M10.5938 20.7607C10.5938 21.1586 10.7518 21.5401 11.0331 21.8214C11.3144 22.1027 11.6959 22.2607 12.0938 22.2607C12.4916 22.2607 12.8731 22.1027 13.1544 21.8214C13.4357 21.5401 13.5938 21.1586 13.5938 20.7607V14.2607H20.0938C20.4916 14.2607 20.8731 14.1027 21.1544 13.8214C21.4357 13.5401 21.5938 13.1586 21.5938 12.7607C21.5938 12.3629 21.4357 11.9814 21.1544 11.7001C20.8731 11.4188 20.4916 11.2607 20.0938 11.2607H13.5938V4.76074C13.5938 4.36292 13.4357 3.98139 13.1544 3.70008C12.8731 3.41878 12.4916 3.26074 12.0938 3.26074C11.6959 3.26074 11.3144 3.41878 11.0331 3.70008C10.7518 3.98139 10.5938 4.36292 10.5938 4.76074V11.2607H4.09375C3.69593 11.2607 3.31439 11.4188 3.03309 11.7001C2.75179 11.9814 2.59375 12.3629 2.59375 12.7607C2.59375 13.1586 2.75179 13.5401 3.03309 13.8214C3.31439 14.1027 3.69593 14.2607 4.09375 14.2607H10.5938V20.7607Z" fill="#E5E7EB"/>
</g>
<defs>
<clipPath id="clip0_3003_66257">
<rect width="24" height="24" fill="white" transform="translate(0.09375 0.760742)"/>
</clipPath>
</defs>
</svg>
